<svg id="Layer_1" enable-background="new 0 0 512 512" viewBox="0 0 512 512" xmlns="http://www.w3.org/2000/svg" xmlns:xlink="http://www.w3.org/1999/xlink"><linearGradient id="lg1"><stop offset="0" stop-color="#5a5a5a"/><stop offset="1" stop-color="#444"/></linearGradient><linearGradient id="SVGID_1_" gradientUnits="userSpaceOnUse" x1="235.052" x2="234.047" xlink:href="#lg1" y1="467.609" y2="507.813"/><linearGradient id="lg2"><stop offset="0" stop-color="#433f43" stop-opacity="0"/><stop offset="1" stop-color="#1a1a1a"/></linearGradient><linearGradient id="SVGID_00000139262328957533217720000011100845804145328534_" gradientUnits="userSpaceOnUse" x1="280.33" x2="348.921" xlink:href="#lg2" y1="481.657" y2="460.553"/><linearGradient id="SVGID_00000173150155357299858170000009317103741504695725_" gradientUnits="userSpaceOnUse" x1="234.329" x2="234.329" xlink:href="#lg2" y1="489.967" y2="509.603"/><linearGradient id="SVGID_00000032642566310054196100000011534498659669741970_" gradientUnits="userSpaceOnUse" x1="275.731" x2="268.114" xlink:href="#lg2" y1="511.392" y2="462.515"/><linearGradient id="SVGID_00000064341542653856631470000002795218502018141083_" gradientUnits="userSpaceOnUse" x1="235.049" x2="234.051" xlink:href="#lg1" y1="436.968" y2="476.88"/><linearGradient id="SVGID_00000180348258804153239280000007182757943400087943_" gradientUnits="userSpaceOnUse" x1="250.581" x2="281.037" xlink:href="#lg2" y1="452.512" y2="443.141"/><linearGradient id="SVGID_00000007404041682213614060000005715305159575589282_" gradientUnits="userSpaceOnUse" x1="234.329" x2="234.329" xlink:href="#lg2" y1="459.281" y2="478.916"/><linearGradient id="SVGID_00000000942660709009067780000010101719166060193208_" gradientUnits="userSpaceOnUse" x1="254.7" x2="242.64" xlink:href="#lg2" y1="452.635" y2="429.149"/><linearGradient id="lg3"><stop offset="0" stop-color="#eaf9fa"/><stop offset="1" stop-color="#b3dafe"/></linearGradient><linearGradient id="SVGID_00000148653487868391498260000003144387409651441034_" gradientUnits="userSpaceOnUse" x1="226.579" x2="247.328" xlink:href="#lg3" y1="414.657" y2="414.657"/><linearGradient id="lg4"><stop offset="0" stop-color="#7bacdf" stop-opacity="0"/><stop offset="1" stop-color="#7bacdf"/></linearGradient><linearGradient id="SVGID_00000108293064528278468270000005378812209436917122_" gradientUnits="userSpaceOnUse" x1="234.329" x2="234.329" xlink:href="#lg4" y1="422.101" y2="398.279"/><linearGradient id="SVGID_00000012450812202211280290000017320615945082317245_" gradientUnits="userSpaceOnUse" x1="230.724" x2="240.772" xlink:href="#lg1" y1="175.399" y2="185.446"/><linearGradient id="SVGID_00000003107153221975577270000015599155301456731292_" gradientUnits="userSpaceOnUse" x1="138.962" x2="287.596" y1="63.054" y2="243.767"><stop offset="0" stop-color="#62dbfb"/><stop offset=".1912" stop-color="#57d5fa"/><stop offset=".5232" stop-color="#3bc5f7"/><stop offset=".954" stop-color="#0dabf2"/><stop offset="1" stop-color="#08a9f1"/></linearGradient><linearGradient id="lg5"><stop offset="0" stop-color="#0593fc" stop-opacity="0"/><stop offset=".6831" stop-color="#0389fc" stop-opacity=".683"/><stop offset="1" stop-color="#0182fc"/></linearGradient><linearGradient id="SVGID_00000147204246512050361340000017038675146087462792_" gradientUnits="userSpaceOnUse" x1="204.162" x2="177.786" xlink:href="#lg5" y1="267.078" y2="344.068"/><linearGradient id="SVGID_00000121988683565307789810000015961771480911783103_" gradientUnits="userSpaceOnUse" x1="275.219" x2="330.823" xlink:href="#lg5" y1="194.973" y2="216.359"/><linearGradient id="SVGID_00000126301266468805050750000002743805093479438746_" gradientUnits="userSpaceOnUse" x1="234.329" x2="395.249" xlink:href="#lg3" y1="179.003" y2="339.923"/><linearGradient id="SVGID_00000031195964745250136920000000496064020899816869_" gradientUnits="userSpaceOnUse" x1="324.898" x2="223.869" xlink:href="#lg3" y1="269.573" y2="168.543"/><linearGradient id="SVGID_00000091716633024116901370000008584865529785257913_" gradientUnits="userSpaceOnUse" x1="268.526" x2="268.526" xlink:href="#lg4" y1="375.911" y2="411.198"/><linearGradient id="SVGID_00000127033390617888769460000016021345085210741942_" gradientUnits="userSpaceOnUse" x1="127.968" x2="98.978" xlink:href="#lg4" y1="358.669" y2="341.56"/><linearGradient id="SVGID_00000083047393399657111770000007025395685918259115_" gradientUnits="userSpaceOnUse" x1="415.249" x2="394.338" xlink:href="#lg4" y1="76.455" y2="52.218"/><linearGradient id="SVGID_00000076571645936674829340000006245625943910549169_" gradientUnits="userSpaceOnUse" x1="70.408" x2="98.473" xlink:href="#lg3" y1="318.263" y2="346.329"/><linearGradient id="SVGID_00000129905411716722206820000006084423827273147565_" gradientUnits="userSpaceOnUse" x1="82.738" x2="82.738" xlink:href="#lg4" y1="330.94" y2="363.188"/><linearGradient id="SVGID_00000132781655473391408500000006224180336046788241_" gradientTransform="matrix(.707 -.707 .707 .707 1716.689 -445.37)" gradientUnits="userSpaceOnUse" x1="-1704.067" x2="-1704.067" xlink:href="#lg4" y1="-606.342" y2="-572.398"/><linearGradient id="SVGID_00000183934572863390355380000014983402369987861162_" gradientUnits="userSpaceOnUse" x1="91.166" x2="64.809" xlink:href="#lg4" y1="339.022" y2="312.665"/><linearGradient id="SVGID_00000137824124620214100420000006793845138695154304_" gradientUnits="userSpaceOnUse" x1="48.992" x2="86.501" xlink:href="#lg4" y1="296.847" y2="334.357"/><linearGradient id="SVGID_00000057855633966858726810000015556073439383192461_" gradientUnits="userSpaceOnUse" x1="82.738" x2="82.738" xlink:href="#lg4" y1="327.907" y2="340.978"/><linearGradient id="SVGID_00000119801645644803402290000013058895329786040973_" gradientUnits="userSpaceOnUse" x1="80.357" x2="90.634" xlink:href="#lg4" y1="328.212" y2="338.489"/><linearGradient id="SVGID_00000044142359812216655250000001213769287787186590_" gradientUnits="userSpaceOnUse" x1="373.589" x2="401.654" xlink:href="#lg3" y1="15.083" y2="43.148"/><linearGradient id="SVGID_00000149379058479263990280000008790533370773043073_" gradientUnits="userSpaceOnUse" x1="385.919" x2="385.919" xlink:href="#lg4" y1="27.76" y2="60.007"/><linearGradient id="SVGID_00000052790119466514465450000015934515006235856292_" gradientTransform="matrix(.707 -.707 .707 .707 1716.689 -445.37)" gradientUnits="userSpaceOnUse" x1="-1275.304" x2="-1275.304" xlink:href="#lg4" y1="-606.342" y2="-572.398"/><linearGradient id="SVGID_00000029751093245209451440000004058123131522118590_" gradientUnits="userSpaceOnUse" x1="394.347" x2="367.99" xlink:href="#lg4" y1="35.841" y2="9.484"/><linearGradient id="SVGID_00000056427588485326220180000017803543208506486188_" gradientUnits="userSpaceOnUse" x1="352.173" x2="389.682" xlink:href="#lg4" y1="-6.333" y2="31.176"/><linearGradient id="SVGID_00000067947742651238625670000004222307649471628219_" gradientUnits="userSpaceOnUse" x1="385.919" x2="385.919" xlink:href="#lg4" y1="24.726" y2="37.797"/><linearGradient id="SVGID_00000166637194720309032750000011465077735281091475_" gradientUnits="userSpaceOnUse" x1="383.538" x2="393.815" xlink:href="#lg4" y1="25.032" y2="35.308"/><linearGradient id="SVGID_00000161602541224232179710000017019917526482375816_" gradientUnits="userSpaceOnUse" x1="183.314" x2="66.759" xlink:href="#lg5" y1="193.796" y2="110.39"/><linearGradient id="SVGID_00000117660993224634666870000000821909734304058519_" gradientUnits="userSpaceOnUse" x1="247.71" x2="214.206" xlink:href="#lg5" y1="361.348" y2="316.794"/><linearGradient id="SVGID_00000017510358988183371120000016658793428650501564_" gradientUnits="userSpaceOnUse" x1="271.105" x2="226.194" xlink:href="#lg5" y1="186.454" y2="167.207"/><linearGradient id="lg6"><stop offset="0" stop-color="#bbec6c"/><stop offset="1" stop-color="#81b823"/></linearGradient><linearGradient id="SVGID_00000082366307766445207130000013445517883106447798_" gradientUnits="userSpaceOnUse" x1="183.169" x2="204.232" xlink:href="#lg6" y1="289.173" y2="312.067"/><linearGradient id="lg7"><stop offset="0" stop-color="#026841" stop-opacity="0"/><stop offset=".2391" stop-color="#0a6644" stop-opacity=".239"/><stop offset=".6113" stop-color="#20604d" stop-opacity=".611"/><stop offset="1" stop-color="#3e5959"/></linearGradient><linearGradient id="SVGID_00000082331505623353609040000001363786435146633361_" gradientUnits="userSpaceOnUse" x1="194.113" x2="194.113" xlink:href="#lg7" y1="299.774" y2="326.128"/><linearGradient id="SVGID_00000001634787834821217350000013361929926309011383_" gradientUnits="userSpaceOnUse" x1="197.861" x2="212.92" xlink:href="#lg7" y1="303.982" y2="315.683"/><linearGradient id="SVGID_00000002359568184583783680000007865902825948544667_" gradientUnits="userSpaceOnUse" x1="236.467" x2="268.958" xlink:href="#lg6" y1="135.199" y2="144.839"/><linearGradient id="SVGID_00000116925420638536370240000017997979990841638035_" gradientUnits="userSpaceOnUse" x1="236.546" x2="246.067" xlink:href="#lg7" y1="140.665" y2="179.226"/><linearGradient id="SVGID_00000153703834469313966350000000025972506459255989_" gradientUnits="userSpaceOnUse" x1="74.978" x2="159.097" xlink:href="#lg6" y1="97.829" y2="143.452"/><linearGradient id="SVGID_00000127040519018009276830000002136038116758094491_" gradientUnits="userSpaceOnUse" x1="138.464" x2="171.969" xlink:href="#lg7" y1="132.117" y2="149.938"/><linearGradient id="SVGID_00000031930178020407086540000008898828357896881810_" gradientUnits="userSpaceOnUse" x1="268.592" x2="395.483" xlink:href="#lg6" y1="178.545" y2="248.406"/><linearGradient id="SVGID_00000026123652855703986960000013389615091651550880_" gradientUnits="userSpaceOnUse" x1="367.274" x2="439.987" xlink:href="#lg7" y1="205.352" y2="196.323"/><linearGradient id="SVGID_00000128449467912183614050000000747787249230371226_" gradientUnits="userSpaceOnUse" x1="349.871" x2="414.98" xlink:href="#lg7" y1="229.987" y2="283.69"/><linearGradient id="SVGID_00000082366830398182776830000018044847612654370233_" gradientUnits="userSpaceOnUse" x1="316.101" x2="304.338" xlink:href="#lg7" y1="307.706" y2="365.449"/><g><g><g><g><g><path d="m357.2 496.596c0 20.538-245.744 20.538-245.744 0s55.012-37.188 122.872-37.188 122.872 16.65 122.872 37.188z" fill="url(#SVGID_1_)"/><path d="m234.329 459.408c-6.851 0-13.568.173-20.114.499v51.908c67.349 1.248 142.985-3.825 142.985-15.219 0-20.538-55.011-37.188-122.871-37.188z" fill="url(#SVGID_00000139262328957533217720000011100845804145328534_)"/><path d="m111.457 496.596c0 20.539 245.743 20.539 245.743 0 0-8.748-9.986-16.79-26.689-23.14h-192.366c-16.702 6.351-26.688 14.392-26.688 23.14z" fill="url(#SVGID_00000173150155357299858170000009317103741504695725_)"/></g><path d="m234.329 459.408c-13.562 0-26.609.667-38.809 1.895l-9.958 9.958 40.709 40.709c64.001.469 130.929-4.655 130.929-15.374 0-20.538-55.011-37.188-122.871-37.188z" fill="url(#SVGID_00000032642566310054196100000011534498659669741970_)"/><g><path d="m285.766 465.91c0 20.538-102.874 20.538-102.874 0s23.029-37.188 51.437-37.188 51.437 16.649 51.437 37.188z" fill="url(#SVGID_00000064341542653856631470000002795218502018141083_)"/><path d="m234.329 428.722c-2.868 0-5.68.173-8.42.499v51.908c28.194 1.248 59.857-3.825 59.857-15.219 0-20.539-23.03-37.188-51.437-37.188z" fill="url(#SVGID_00000180348258804153239280000007182757943400087943_)"/><path d="m182.892 465.91c0 20.539 102.874 20.539 102.874 0 0-8.748-4.18-16.79-11.172-23.14h-80.529c-6.993 6.35-11.173 14.392-11.173 23.14z" fill="url(#SVGID_00000007404041682213614060000005715305159575589282_)"/></g></g><path d="m285.766 465.91c0-20.538-23.029-37.188-51.437-37.188-.784 0-1.561.018-2.337.043l-11.393 11.393 39.318 39.318c14.827-2.322 25.849-6.844 25.849-13.566z" fill="url(#SVGID_00000000942660709009067780000010101719166060193208_)"/><path d="m250.517 386.545v47.958c0 3.884-2.875 7.165-6.725 7.677-5.912.786-13.013.786-18.925 0-3.85-.512-6.725-3.793-6.725-7.677v-47.958z" fill="url(#SVGID_00000148653487868391498260000003144387409651441034_)"/><path d="m250.517 386.545v47.958c0 3.884-2.875 7.165-6.725 7.677-5.912.786-13.013.786-18.925 0-3.85-.512-6.725-3.793-6.725-7.677v-47.958z" fill="url(#SVGID_00000108293064528278468270000005378812209436917122_)"/></g><path d="m88.648 335.371-10.688-10.688 302.049-302.048 10.688 10.688z" fill="url(#SVGID_00000012450812202211280290000017320615945082317245_)"/><g><g><circle cx="234.329" cy="179.003" fill="url(#SVGID_00000003107153221975577270000015599155301456731292_)" r="177.141"/><path d="m57.187 179.003c0 97.832 79.309 177.142 177.142 177.142 97.832 0 177.142-79.309 177.142-177.142 0-21.188-3.733-41.501-10.555-60.334h-333.174c-6.822 18.833-10.555 39.146-10.555 60.334z" fill="url(#SVGID_00000147204246512050361340000017038675146087462792_)"/><path d="m109.071 304.261c69.178 69.178 181.338 69.178 250.516 0s69.178-181.338 0-250.516c-14.982-14.982-31.985-26.706-50.126-35.199l-235.589 235.589c8.492 18.141 20.216 35.144 35.199 50.126z" fill="url(#SVGID_00000121988683565307789810000015961771480911783103_)"/></g></g><g><g><path d="m234.329 406.472c-53.651 0-107.302-18.801-150.099-56.403-6.051-5.317-6.297-14.67-.601-20.366 5.193-5.193 13.544-5.52 19.061-.673 78.303 68.798 198.038 65.832 272.768-8.898 74.73-74.731 77.696-194.466 8.898-272.768-4.847-5.517-4.52-13.869.673-19.061 5.696-5.696 15.049-5.45 20.366.601 78.447 89.283 75.065 225.81-10.146 311.019-44.366 44.366-102.643 66.549-160.92 66.549z" fill="url(#SVGID_00000126301266468805050750000002743805093479438746_)"/></g><path d="m385.353 330.028c83.403-83.403 83.408-218.622.017-302.032-.112.105-.232.198-.341.307-5.193 5.193-5.52 13.545-.673 19.061 68.798 78.303 65.832 198.038-8.898 272.768s-194.466 77.696-272.768 8.898c-5.517-4.847-13.868-4.52-19.061.673-.109.11-.202.229-.307.341 83.409 83.392 218.628 83.387 302.031-.016z" fill="url(#SVGID_00000031195964745250136920000000496064020899816869_)"/><path d="m428.94 223c-7.993 35.622-25.813 69.463-53.482 97.133-74.73 74.73-194.466 77.696-272.768 8.898-5.517-4.847-13.869-4.52-19.061.673-5.696 5.696-5.45 15.049.601 20.366 42.797 37.602 96.448 56.403 150.099 56.403 58.277 0 116.554-22.183 160.92-66.548 33.144-33.144 53.902-74.052 62.285-116.923h-28.594z" fill="url(#SVGID_00000091716633024116901370000008584865529785257913_)"/><path d="m190.303 373.618c-31.635-7.103-61.865-21.964-87.613-44.587-5.517-4.847-13.869-4.52-19.061.673-5.696 5.696-5.45 15.049.601 20.366 24.796 21.786 53.239 37.247 83.211 46.411z" fill="url(#SVGID_00000127033390617888769460000016021345085210741942_)"/><path d="m405.394 28.904c-5.317-6.051-14.67-6.297-20.365-.601-5.193 5.193-5.52 13.544-.673 19.061 20.432 23.255 34.534 50.164 42.307 78.463l22.33-22.33c-9.38-26.801-23.911-52.185-43.599-74.593z" fill="url(#SVGID_00000083047393399657111770000007025395685918259115_)"/></g><g><g><g><circle cx="82.738" cy="330.593" fill="url(#SVGID_00000076571645936674829340000006245625943910549169_)" r="27.413"/><path d="m55.325 330.593c0 15.14 12.273 27.413 27.413 27.413s27.413-12.273 27.413-27.413c0-3.279-.578-6.422-1.633-9.337h-51.559c-1.056 2.915-1.634 6.059-1.634 9.337z" fill="url(#SVGID_00000129905411716722206820000006084423827273147565_)"/><path d="m63.355 349.977c10.705 10.705 28.062 10.705 38.768 0 10.705-10.705 10.705-28.062 0-38.768-2.319-2.319-4.95-4.133-7.757-5.447l-36.459 36.458c1.315 2.808 3.129 5.439 5.448 7.757z" fill="url(#SVGID_00000132781655473391408500000006224180336046788241_)"/></g><circle cx="82.738" cy="330.593" fill="url(#SVGID_00000183934572863390355380000014983402369987861162_)" r="22.61"/><g><circle cx="82.738" cy="330.593" fill="url(#SVGID_00000137824124620214100420000006793845138695154304_)" r="16.139"/><path d="m66.599 330.593c0 8.913 7.226 16.139 16.139 16.139s16.139-7.226 16.139-16.139c0-1.93-.34-3.781-.962-5.497h-30.354c-.622 1.716-.962 3.567-.962 5.497z" fill="url(#SVGID_00000057855633966858726810000015556073439383192461_)"/><path d="m71.326 342.006c6.303 6.303 16.522 6.303 22.824 0 6.303-6.303 6.303-16.522 0-22.824-1.365-1.365-2.914-2.433-4.567-3.207l-21.464 21.464c.774 1.653 1.842 3.202 3.207 4.567z" fill="url(#SVGID_00000119801645644803402290000013058895329786040973_)"/></g></g><g><g><circle cx="385.919" cy="27.413" fill="url(#SVGID_00000044142359812216655250000001213769287787186590_)" r="27.413"/><path d="m358.506 27.413c0 15.14 12.273 27.413 27.413 27.413s27.413-12.273 27.413-27.413c0-3.279-.578-6.422-1.633-9.337h-51.559c-1.056 2.914-1.634 6.058-1.634 9.337z" fill="url(#SVGID_00000149379058479263990280000008790533370773043073_)"/><path d="m366.535 46.797c10.705 10.705 28.062 10.705 38.768 0 10.705-10.705 10.705-28.062 0-38.768-2.319-2.319-4.95-4.133-7.757-5.447l-36.458 36.458c1.314 2.807 3.129 5.438 5.447 7.757z" fill="url(#SVGID_00000052790119466514465450000015934515006235856292_)"/></g><circle cx="385.919" cy="27.413" fill="url(#SVGID_00000029751093245209451440000004058123131522118590_)" r="22.61"/><g><circle cx="385.919" cy="27.413" fill="url(#SVGID_00000056427588485326220180000017803543208506486188_)" r="16.139"/><path d="m369.78 27.413c0 8.913 7.226 16.139 16.139 16.139s16.139-7.226 16.139-16.139c0-1.93-.34-3.781-.962-5.497h-30.355c-.621 1.716-.961 3.566-.961 5.497z" fill="url(#SVGID_00000067947742651238625670000004222307649471628219_)"/><path d="m374.507 38.825c6.303 6.303 16.522 6.303 22.824 0 6.303-6.303 6.303-16.522 0-22.824-1.365-1.365-2.914-2.433-4.567-3.207l-21.464 21.464c.774 1.653 1.842 3.202 3.207 4.567z" fill="url(#SVGID_00000166637194720309032750000011465077735281091475_)"/></g></g></g></g><path d="m187.047 29.907h-48.414c-10.473 6.736-20.397 14.674-29.562 23.838-69.178 69.178-69.178 181.338 0 250.516s181.338 69.178 250.516 0c18.127-18.127 31.496-39.209 40.123-61.692z" fill="url(#SVGID_00000161602541224232179710000017019917526482375816_)"/><path d="m211.103 284.079-33.98 33.98 36.918 36.918c21.264 2.437 42.882 1.027 63.734-4.227z" fill="url(#SVGID_00000117660993224634666870000000821909734304058519_)"/><path d="m225.06 166.422 136.161 136.161c17.292-17.747 30.125-38.217 38.489-60.014l-137.388-137.387-25.892 25.892z" fill="url(#SVGID_00000017510358988183371120000016658793428650501564_)"/><g><circle cx="194.113" cy="301.069" fill="url(#SVGID_00000082366307766445207130000013445517883106447798_)" r="24.028"/><path d="m170.085 301.069c0 13.27 10.758 24.028 24.028 24.028s24.028-10.758 24.028-24.028c0-2.874-.506-5.629-1.432-8.184h-45.192c-.926 2.555-1.432 5.31-1.432 8.184z" fill="url(#SVGID_00000082331505623353609040000001363786435146633361_)"/><path d="m177.123 318.059c9.383 9.383 24.597 9.383 33.98 0s9.383-24.597 0-33.98c-2.032-2.032-4.338-3.622-6.799-4.774l-31.956 31.956c1.152 2.459 2.743 4.766 4.775 6.798z" fill="url(#SVGID_00000001634787834821217350000013361929926309011383_)"/></g><g><path d="m237.33 173.869c15.824 3.245 28.433-13.028 22.116-27.895-4.721-11.111-3.98-24.3 3.141-35.15.012-.018.024-.036.035-.054 1.8-2.733.363-6.411-2.83-7.13-14.751-3.323-30.666 2.563-39.453 15.951-11.324 17.254-6.516 40.42 10.737 51.744 1.933 1.267 4.042 2.08 6.254 2.534z" fill="url(#SVGID_00000002359568184583783680000007865902825948544667_)"/><path d="m216.339 127.669c-5.598 15.84.065 34.035 14.739 43.665 1.932 1.268 4.04 2.082 6.252 2.535 15.824 3.245 28.433-13.028 22.116-27.895-2.443-5.75-3.409-12.055-2.8-18.305z" fill="url(#SVGID_00000116925420638536370240000017997979990841638035_)"/></g><g><path d="m117.675 219.37c15.308-15.308 15.308-40.127 0-55.434l-14.425-14.425c-14.788-14.788-14.788-38.764 0-53.551 11.111-11.111 29.125-11.111 40.236 0 11.111 11.111 29.125 11.111 40.236 0l17.967-17.967c6.978-6.978 2.036-18.909-7.833-18.909-8.257 0-12.393-9.983-6.554-15.822 3.718-3.718 3.602-9.781-.256-13.354-14.85-13.752-37.23-15.797-54.116-4.639-10.18 6.727-19.839 14.571-28.803 23.535-40.001 40.001-57.746 93.826-53.242 146.095 2.867 33.252 43.189 48.073 66.79 24.471z" fill="url(#SVGID_00000153703834469313966350000000025972506459255989_)"/><path d="m117.675 219.37c15.308-15.308 15.308-40.127 0-55.434l-14.425-14.425c-14.788-14.788-14.788-38.764 0-53.551 11.111-11.111 29.125-11.111 40.236 0 11.111 11.111 29.125 11.111 40.236 0l17.967-17.967c6.978-6.978 2.036-18.909-7.833-18.909-8.257 0-12.393-9.983-6.554-15.822 3.718-3.718 3.602-9.781-.256-13.354-14.85-13.752-37.23-15.797-54.116-4.639-10.18 6.727-19.839 14.571-28.803 23.535-40.001 40.001-57.746 93.826-53.242 146.095 2.867 33.252 43.189 48.073 66.79 24.471z" fill="url(#SVGID_00000127040519018009276830000002136038116758094491_)"/></g><g><path d="m337.511 90.216c-11.597-11.597-30.4-11.597-41.997 0l-12.599 12.599c-17.795 17.795-17.795 46.645 0 64.44 3.79 3.79 8.929 5.919 14.289 5.919h11.179c5.359 0 10.499 2.129 14.289 5.918 12.229 12.229 12.23 32.057 0 44.287l-33.829 33.829c-3.79 3.79-8.929 5.919-14.289 5.919h-.464c-19.484 0-35.279 15.795-35.279 35.279 0 9.357 3.717 18.33 10.333 24.946 23.39 23.39 60.102 27.15 87.577 8.73 9.815-6.58 19.138-14.207 27.81-22.879 57.882-57.881 69.161-144.706 33.859-213.879-6.24-12.226-22.594-14.814-32.3-5.108-7.894 7.892-20.688 7.892-28.579 0z" fill="url(#SVGID_00000031930178020407086540000008898828357896881810_)"/><path d="m337.511 90.216c-11.597-11.597-30.4-11.597-41.997 0l-12.599 12.599c-17.795 17.795-17.795 46.645 0 64.44 3.79 3.79 8.929 5.919 14.289 5.919h11.179c5.359 0 10.499 2.129 14.289 5.918 12.229 12.229 12.23 32.057 0 44.287l-33.829 33.829c-3.79 3.79-8.929 5.919-14.289 5.919h-.464c-19.484 0-35.279 15.795-35.279 35.279 0 9.357 3.717 18.33 10.333 24.946 23.39 23.39 60.102 27.15 87.577 8.73 9.815-6.58 19.138-14.207 27.81-22.879 57.882-57.881 69.161-144.706 33.859-213.879-6.24-12.226-22.594-14.814-32.3-5.108-7.894 7.892-20.688 7.892-28.579 0z" fill="url(#SVGID_00000026123652855703986960000013389615091651550880_)"/><path d="m337.511 90.216c-11.597-11.597-30.4-11.597-41.997 0l-12.599 12.599c-17.795 17.795-17.795 46.645 0 64.44 3.79 3.79 8.929 5.919 14.289 5.919h11.179c5.359 0 10.499 2.129 14.289 5.918 12.229 12.229 12.23 32.057 0 44.287l-33.829 33.829c-3.79 3.79-8.929 5.919-14.289 5.919h-.464c-19.484 0-35.279 15.795-35.279 35.279 0 9.357 3.717 18.33 10.333 24.946 23.39 23.39 60.102 27.15 87.577 8.73 9.815-6.58 19.138-14.207 27.81-22.879 57.882-57.881 69.161-144.706 33.859-213.879-6.24-12.226-22.594-14.814-32.3-5.108-7.894 7.892-20.688 7.892-28.579 0z" fill="url(#SVGID_00000128449467912183614050000000747787249230371226_)"/><path d="m326.854 218.193c-1.185 1.836-2.576 3.578-4.184 5.186l-33.829 33.829c-3.79 3.79-8.929 5.919-14.289 5.919h-.464c-19.484 0-35.279 15.795-35.279 35.279 0 9.357 3.717 18.33 10.333 24.946 23.39 23.39 60.102 27.15 87.577 8.73 9.815-6.58 19.138-14.207 27.81-22.879 25.925-25.925 42.494-57.659 49.723-91.01z" fill="url(#SVGID_00000082366830398182776830000018044847612654370233_)"/></g></g><g/><g/><g/><g/><g/><g/><g/><g/><g/><g/><g/><g/><g/><g/><g/></svg>