<svg height="512pt" viewBox="0 -89 512 512" width="512pt" xmlns="http://www.w3.org/2000/svg"><path d="m466.3125 276.414062h-420.625v-244.507812c0-13.472656 10.917969-24.390625 24.390625-24.390625h371.84375c13.472656 0 24.390625 10.917969 24.390625 24.390625zm0 0" fill="#243133"/><path d="m441.921875 7.515625h-27.046875c13.46875 0 24.390625 10.917969 24.390625 24.390625v244.507812h27.046875v-244.507812c0-13.472656-10.917969-24.390625-24.390625-24.390625zm0 0" fill="#1d2728"/><path d="m504.488281 276.414062h-496.976562c0 27.273438 22.109375 49.382813 49.386719 49.382813h398.207031c27.273437 0 49.382812-22.109375 49.382812-49.382813zm0 0" fill="#ddd"/><path d="m468.421875 276.414062c0 27.273438-22.109375 49.382813-49.382813 49.382813h36.0625c27.273438 0 49.386719-22.109375 49.386719-49.382813zm0 0" fill="#c4c4c4"/><path d="m82.351562 42.519531h347.296876v233.894531h-347.296876zm0 0" fill="#5d7d84"/><path d="m402.597656 42.519531h27.050782v233.894531h-27.050782zm0 0" fill="#516e72"/><path d="m311.800781 276.414062h-111.601562c0 13.636719 11.058593 24.691407 24.695312 24.691407h62.214844c13.636719 0 24.691406-11.054688 24.691406-24.691407zm0 0" fill="#8c8c8c"/><path d="m256 156.480469-77.929688-39.703125 77.929688-39.703125 77.929688 39.703125zm0 0" fill="#c90e0e"/><path d="m178.070312 116.777344v89.515625l77.929688 39.703125v-89.515625zm0 0" fill="#ffdb56"/><path d="m333.929688 116.777344v89.515625l-77.929688 39.703125v-89.515625zm0 0" fill="#80e7ff"/><path d="m306.898438 130.546875 27.03125-13.769531-77.929688-39.703125-27.027344 13.769531zm0 0" fill="#a50e0e"/><path d="m306.878906 130.558594v89.515625l27.050782-13.78125v-89.515625zm0 0" fill="#47dbf4"/><path d="m174.660156 212.988281 77.929688 39.703125c.078125.039063.160156.066406.238281.105469.117187.054687.238281.105469.359375.15625.183594.074219.371094.136719.5625.199219.121094.035156.238281.074218.359375.105468.207031.054688.417969.097657.632813.132813.101562.015625.203124.039063.304687.054687.316406.039063.636719.0625.953125.0625h.003906c.316406 0 .632813-.023437.949219-.0625.105469-.015624.207031-.039062.3125-.054687.210937-.039063.421875-.078125.628906-.132813.121094-.03125.242188-.070312.359375-.109374.191406-.058594.375-.125.5625-.199219.121094-.046875.238282-.101563.359375-.15625.078125-.035157.160157-.0625.238281-.101563l77.925782-39.703125c2.519531-1.28125 4.105468-3.867187 4.105468-6.695312v-89.515625c0-.339844-.027343-.679688-.070312-1.011719-.015625-.113281-.046875-.21875-.066406-.332031-.039063-.21875-.078125-.433594-.136719-.644532-.035156-.128906-.085937-.25-.125-.378906-.0625-.1875-.125-.375-.203125-.554687-.054688-.128907-.117188-.253907-.179688-.378907-.082031-.171874-.167968-.339843-.261718-.503906-.074219-.121094-.15625-.242187-.234375-.359375-.101563-.15625-.207031-.308593-.320313-.453125-.089844-.117187-.1875-.226562-.285156-.335937-.121094-.136719-.242188-.273438-.375-.402344-.105469-.105469-.21875-.203125-.332031-.304687-.136719-.117188-.277344-.234376-.425781-.34375-.121094-.089844-.246094-.179688-.375-.261719-.066407-.046875-.128907-.097657-.199219-.140625-.089844-.058594-.191407-.101563-.285157-.152344-.078124-.042969-.148437-.097656-.230468-.136719l-77.925782-39.703125c-2.144531-1.089844-4.679687-1.089844-6.824218 0l-77.925782 39.703125c-.082031.039063-.152343.09375-.234374.136719-.09375.054688-.191407.09375-.28125.152344-.070313.042968-.128907.09375-.199219.140625-.128907.082031-.253907.171875-.375.261719-.148438.113281-.289063.226562-.425781.347656-.113282.097656-.222657.195312-.332032.300781-.128906.132813-.253906.265625-.375.402344-.097656.109375-.195312.21875-.285156.335937-.113281.148438-.21875.300782-.320312.453125-.082032.121094-.160157.238281-.234376.363281-.09375.160157-.179687.332032-.261718.5-.0625.125-.128906.25-.179688.378907-.078125.183593-.140625.371093-.203125.558593-.039062.125-.089843.25-.125.375-.058593.214844-.097656.429688-.136719.648438-.019531.109375-.046874.21875-.0625.332031-.046874.332031-.070312.667969-.070312 1.007813v89.519531c-.003906 2.824219 1.582031 5.410156 4.097656 6.691406zm10.925782-83.949219 62.902343 32.046876v72.648437l-62.902343-32.042969zm77.925781 104.695313v-72.648437l62.902343-32.046876v72.648438zm-7.511719-148.226563 61.375 31.269532-15.421875 7.859375-45.953125 23.410156-45.953125-23.410156-15.421875-7.859375zm0 0"/><path d="m45.6875 186.871094c4.148438 0 7.511719-3.359375 7.511719-7.511719v-147.453125c0-9.308594 7.570312-16.878906 16.878906-16.878906h371.84375c9.308594 0 16.878906 7.570312 16.878906 16.878906v37.515625c0 4.148437 3.363281 7.511719 7.511719 7.511719s7.515625-3.363282 7.515625-7.511719v-37.515625c0-17.59375-14.3125-31.90625-31.90625-31.90625h-371.84375c-17.59375 0-31.90625 14.3125-31.90625 31.90625v147.453125c0 4.148437 3.367187 7.511719 7.515625 7.511719zm0 0"/><path d="m509.800781 271.101562c-1.410156-1.410156-3.320312-2.203124-5.3125-2.203124h-30.660156v-169.421876c0-4.152343-3.367187-7.515624-7.515625-7.515624s-7.511719 3.363281-7.511719 7.515624v169.421876h-21.640625v-226.378907c0-4.152343-3.363281-7.515625-7.511718-7.515625h-347.296876c-4.148437 0-7.511718 3.363282-7.511718 7.515625v226.378907h-21.640625v-59.484376c0-4.148437-3.363281-7.515624-7.511719-7.515624s-7.515625 3.367187-7.515625 7.515624v59.488282h-30.660156c-4.148438 0-7.511719 3.363281-7.511719 7.511718 0 31.371094 25.523438 56.898438 56.894531 56.898438h304.328125c4.148438 0 7.515625-3.363281 7.515625-7.515625 0-4.148437-3.367187-7.511719-7.515625-7.511719h-304.328125c-20.519531 0-37.640625-14.84375-41.191406-34.359375l177.878906.003907c3.394531 14.144531 16.140625 24.691406 31.3125 24.691406h62.214844c15.167969 0 27.914063-10.546875 31.308594-24.691406h177.878906c-3.550781 19.511718-20.671875 34.355468-41.191406 34.355468h-68.261719c-4.152344 0-7.515625 3.363282-7.515625 7.511719 0 4.152344 3.363281 7.515625 7.515625 7.515625h68.261719c31.371093 0 56.894531-25.527344 56.894531-56.898438 0-1.992187-.792969-3.902343-2.199219-5.3125zm-222.695312 22.492188h-62.214844c-6.777344 0-12.652344-3.949219-15.445313-9.667969h93.109376c-2.792969 5.71875-8.667969 9.667969-15.449219 9.667969zm135.027343-24.695312h-332.265624v-218.867188h332.265624zm0 0"/></svg>