<svg id="Layer_1" enable-background="new 0 0 105 105" viewBox="0 0 105 105" xmlns="http://www.w3.org/2000/svg"><g><g><g><g><g><path d="m95.1533737 23.222023v60.3696289c0 10.0703125-20.0299072 18.2304688-44.75 18.2304688-24.7199707 0-44.7598877-8.1601563-44.7598877-18.2304688v-60.3696289c0 10.0698242 20.039917 18.2299805 44.7598877 18.2299805 24.7200928 0 44.75-8.1601563 44.75-18.2299805z" fill="#c3c9fb"/></g></g><g><g><path d="m95.1533737 23.222023v60.3696289c0 10.0703125-20.0299072 18.2304688-44.75 18.2304688-11.0198975 0-21.1099854-1.6201172-28.9100342-4.3203125 3.3701172.7700195 6.880127 1.1801758 10.4899902 1.1801758 24.8400879 0 44.9700928-19.1699219 44.9700928-42.800293 0-6.0400391-1.3099365-11.7797852-3.6800537-16.9897461 13.1000977-3.1801758 21.8800049-9 21.8800049-15.6699219z" fill="#8693e2"/></g></g><g><g><path d="m23.343132 13.2953615c0-2.2823763-2.3070221-3.878705-4.4239769-3.025629-8.1961203 3.3028154-13.2763042 7.8851748-13.2763042 12.9518328 0 5.9249516 6.9471383 11.1876259 17.7002811 14.516304z" fill="#dabcbc"/></g></g><g><g><path d="m77.4554214 13.2953615c0-2.2823763 2.3070221-3.878705 4.4239807-3.025629 8.1961136 3.3028154 13.2762985 7.8851748 13.2762985 12.9518328 0 5.9249516-6.9471359 11.1876259-17.7002792 14.516304z" fill="#dabcbc"/></g></g><g><g><path d="m95.0033493 21.7317886c-2.3099365-2.3500977-5.7800293-4.4599609-10.119873-6.20996-2.1201172-.8598633-4.4300537.7402334-4.4300537 3.0200186v18.1801758c-.960083.3598633-1.960083.699707-3 1.0200195v-24.4501943c0-2.2797852 2.3099365-3.8798828 4.4300537-3.0200195 7.3798828 2.9702148 12.2299804 6.9799795 13.119873 11.4599599z" fill="#bc9595"/></g></g><g><g><path d="m5.7180281 21.7317886c2.3099365-2.3500977 5.7800293-4.4599609 10.119873-6.20996 2.1201162-.8598633 4.4300528.7402334 4.4300528 3.0200186v18.1801758c.960083.3598633 1.960083.699707 3 1.0200195v-24.4501943c0-2.2797852-2.3099365-3.8798828-4.4300537-3.0200195-7.3798819 2.9702148-12.2299796 6.9799795-13.1198721 11.4599599z" fill="#bc9595"/></g></g><g><g><path d="m50.3994141 102.5718994c-25.5175781 0-45.5063477-8.3354492-45.5063477-18.9763184v-60.3701171c0-.4143066.3359375-.75.75-.75s.75.3356934.75.75c0 9.6364746 19.7412109 17.4763184 44.0063477 17.4763184s44.0063477-7.8398438 44.0063477-17.4763184c0-.4143066.3359375-.75.75-.75s.75.3356934.75.75v60.3701172c-.0000001 10.6408691-19.9887696 18.9763183-45.5063477 18.9763183zm-44.0063482-74.4018555v55.4255371c0 9.6364746 19.7412109 17.4763184 44.0063477 17.4763184s44.0063477-7.8398438 44.0063477-17.4763184v-55.4255371c-5.0932613 8.1689454-22.60498 14.0317383-44.0063472 14.0317383s-38.913086-5.8627929-44.0063482-14.0317383z" fill="#0f0f0f"/></g></g><g><g><path d="m23.3432617 38.487915c-.0742188 0-.1489258-.0109863-.2216797-.0334473-11.5844726-3.5859374-18.2285161-9.1381835-18.2285161-15.2329101 0-5.2285156 4.8813481-10.0751953 13.7456055-13.6474609 1.2148438-.489502 2.5917969-.3413086 3.6845703.3964844 1.1083984.748291 1.7700195 1.9912109 1.7700195 3.324707v24.442627c0 .2382813-.1132813.4624023-.3046875.6037598-.1308589.0961913-.2871089.1462401-.445312.1462401zm-3.2304687-27.7021484c-.3066406 0-.6157227.0595703-.9135742.1794434-8.1386719 3.2800293-12.8061523 7.7473145-12.8061523 12.2563477 0 5.1506348 6.0341802 10.1567383 16.2001953 13.4902344v-23.416504c0-.8344727-.4145508-1.6125488-1.109375-2.081543-.419922-.2834472-.8930665-.4279785-1.3710938-.4279785z" fill="#0f0f0f"/></g></g><g><g><path d="m77.4555664 38.487915c-.1582031 0-.3144531-.0500488-.4448242-.1462402-.1918945-.1413574-.3051758-.3654785-.3051758-.6037598v-24.442627c0-1.3334961.6616211-2.576416 1.7700195-3.324707 1.0917969-.7380371 2.46875-.8864746 3.684082-.3964844 8.8642578 3.5720215 13.7460938 8.4189453 13.7460938 13.6474609 0 6.0947266-6.644043 11.6467285-18.2285156 15.2329102-.0727539.022461-.1474609.0334473-.2216797.0334473zm3.2304688-27.7021484c-.4785156 0-.9516602.1445313-1.3710938.4279785-.6948242.4689941-1.109375 1.2470703-1.109375 2.081543v23.4165039c10.1660156-3.3337402 16.2001953-8.3398438 16.2001953-13.4902344 0-4.5092773-4.6679688-8.9763184-12.8066406-12.2563477-.2978516-.119873-.6069336-.1794433-.9130859-.1794433z" fill="#0f0f0f"/></g></g><g><g><g><g><path d="m87.4411545 92.3719254-15.0224762-24.0068894-4.4584198-7.1129723c-1.4337921-2.2852097-4.7730064-2.2852097-6.2067986 0l-4.365963 6.9835548-15.1054801 24.1363069z" fill="#5b5476"/></g></g><g><g><path d="m64.9963531 92.3684387c2.436409-4.0776367 3.9042969-9.2971268 3.9042969-14.9954681 0-6.9322815-2.1713486-13.1607361-5.6169548-17.4832726 1.5903358-.7541008 3.6393623-.2951698 4.6791801 1.3663483l4.454689 7.1055031 15.0260849 24.0068893z" fill="#3f3b5b"/></g></g><g><g><path d="m72.4175644 68.3615494-3.8125839 4.6789322-.2955475.3668442c-.5709229.703331-1.6718445.6117477-2.1101227-.18367l-1.3967056-2.517662c-.4995041-.8870087-1.7839661-.8666-2.2528572.030365l-.5607224 1.0502701c-.4484825.8665924-1.6615181.9273224-2.1916313.1119919l-2.4059181-3.659523 4.363102-6.9830513c.3975868-.6321526.9277-1.0905876 1.5291176-1.3663483.0204048-.0099525.0408134-.0199089.0612221-.0199089.091713-.0512695.1834259-.0816307.2752609-.122448.1119957-.0408173.2344437-.0716782.3567696-.1020393.1427345-.0408173.2853355-.0711823.4383965-.0816345.1426086-.0204086.2955475-.0303612.4382782-.0303612 1.192627 0 2.3853836.5709267 3.1092529 1.7227402z" fill="#aff2b6"/></g></g></g><g><g><g><path d="m87.440918 93.1219482h-45.1586914c-.2729492 0-.5239258-.1479492-.65625-.3867188-.1318359-.2385254-.1240234-.5300293.0205078-.7612305l19.4711914-31.1193848c.8115234-1.2941895 2.2089844-2.0664063 3.7387695-2.0664063s2.9277344.7719727 3.7392578 2.0651855l19.480957 31.1206055c.1445313.2312012.1523438.5227051.0205078.7612305-.1323241.2387697-.3833007.3867189-.6562499.3867189zm-43.8046875-1.5h42.4506836l-18.7622071-29.9716796c-.5351563-.8527832-1.4580078-1.3620605-2.4682617-1.3620605-1.0097656 0-1.9326172.5092773-2.4677734 1.3625488z" fill="#0f0f0f"/></g></g><g><g><path d="m72.4175644 68.3615494-3.8125839 4.6789322c-.6931305-5.1687241-2.6096268-9.7560692-5.3212852-13.1507835.0204048-.0099525.0408134-.0199089.0612221-.0199089.091713-.0512695.1834259-.0816307.2752609-.122448.1119957-.0408173.2344437-.0716782.3567696-.1020393.1427345-.0408173.2853355-.0711823.4383965-.0816345.1426086-.0204086.2955475-.0303612.4382782-.0303612 1.192627 0 2.3853836.5709267 3.1092529 1.7227402z" fill="#7fd685"/></g></g><g><g><path d="m67.3164063 74.6304932c-.0625 0-.125-.0029297-.1879883-.0085449-.6694336-.0620117-1.2617188-.4511719-1.5839844-1.0410156l-1.394043-2.5112305c-.1391602-.2470703-.3759766-.2788086-.4741211-.2697754-.0952148.0012207-.331543.0314941-.4638672.2824707l-.5546875 1.0544434c-.3349609.6425781-.9682617 1.0495605-1.6918945 1.0866699-.7270508.0351563-1.3984375-.3037109-1.7993164-.9118652l-2.4057617-3.6645508c-.1606445-.244873-.1640625-.560791-.0087891-.809082l4.3657227-6.9833984c.8115234-1.2941895 2.2089844-2.0661621 3.7387695-2.0661621 1.5297852-.0002441 2.9277344.7717285 3.7392578 2.0649414l4.4584961 7.1135254c.1704102.2722166.1484375.6228026-.0541992.871826l-4.1069336 5.0415039c-.3901367.4780274-.96875.7502442-1.5766601.7502442zm-3.6323243-5.3305664c.7358398 0 1.4145508.395752 1.7758789 1.0380859l1.3984375 2.5192871c.121582.222168.3256836.2634277.4082031.2709961.0864258.0078125.300293.0043945.4638672-.1958008l3.7670898-4.6245117-4.1723633-6.6577148c-.5356445-.8525391-1.4584961-1.3620605-2.46875-1.3618164-1.0102539 0-1.9326172.5092773-2.4677734 1.3623047l-4.1103516 6.5749512 2.1411133 3.2614746c.1513672.2290039.3823242.2431641.4697266.2382813.0898438-.0046387.3129883-.0415039.4399414-.284668l.5561523-1.0566406c.3461914-.6582031 1.0244141-1.0737305 1.7700195-1.0842285.0092775-.0000001.0190431-.0000001.0288087-.0000001z" fill="#0f0f0f"/></g></g></g><g><g><path d="m62.8827477 92.3719254-16.6644555-26.6305771-4.9133759-7.8391991c-1.5801315-2.518158-5.2603111-2.518158-6.8404427 0l-4.8115845 7.6963463-16.7557953 26.7734299z" fill="#5b5476"/></g></g><g><g><path d="m37.5538101 92.3684387c2.6403618-4.6789246 4.2101669-10.5206223 4.2101669-16.8406601 0-7.3907166-2.1509399-14.108963-5.6372414-19.1139259 1.7533569-.8461914 4.026619-.3469391 5.1784325 1.4882965l4.91362 7.8391991 16.6674461 26.6270905h-25.3324241z" fill="#3f3b5b"/></g></g><g><g><path d="m46.2187881 65.7413483-4.5261154 5.5559845c-.0510216.0607224-.0918388.1119919-.1529388.1423569-.6524353.6117401-1.7228661.4688873-2.1713448-.3464432l-1.5393181-2.7725143c-.5505219-.9785919-1.967392-.9586792-2.4873009.030365l-.6117439 1.162262c-.4995003.9581909-1.8349876 1.0194092-2.426075.1224518l-2.6505642-4.0373154 4.8115826-7.6963463c.428196-.6829224 1.0092049-1.1826744 1.6617661-1.4882965.1732216-.0920868.3566437-.152813.5401917-.2040825.1019173-.0408134.2141609-.0711784.3159523-.0915871.1326523-.0303612.2752609-.0612221.4079132-.0711784.1732216-.0204086.3363609-.0308609.4995003-.0308609.1630173 0 .3261566.0104523.4892998.0308609.3261566.0408173.6523094.1119957.9581833.2344437.7747612.2951698 1.478096.8357353 1.967392 1.6207008z" fill="#aff2b6"/></g></g><g><g><circle cx="51.91" cy="51.086" fill="#fff" r="4.928"/></g></g><g><g><path d="m62.8828125 93.1219482h-49.9858398c-.2729492 0-.5239258-.1479492-.65625-.3867188-.1318359-.2385254-.1240234-.5300293.0205078-.7612305l21.5673828-34.4692383c.8803711-1.4038086 2.3964844-2.2412109 4.0556641-2.2412109 1.659668 0 3.1757813.8374023 4.0556641 2.2399902l21.5786133 34.470459c.1445313.2312012.1523438.5227051.0205078.7612305-.1323243.2387696-.3833009.3867188-.6562501.3867188zm-48.6318359-1.5h47.277832l-20.859375-33.3212891c-.6040039-.9624023-1.6450195-1.5371094-2.7851563-1.5371094-1.1396484 0-2.1806641.574707-2.784668 1.5373535z" fill="#0f0f0f"/></g></g><g><g><path d="m46.2187881 65.7413483-4.5261154 5.5559845c-.0510216.0607224-.0918388.1119919-.1529388.1423569-.6320267-5.7595673-2.5791321-10.9586525-5.4129982-15.0258369.1732216-.0920868.3566437-.152813.5401917-.2040825.1019173-.0408134.2141609-.0711784.3159523-.0915871.1326523-.0303612.2752609-.0612221.4079132-.0711784.1732216-.0204086.3363609-.0308609.4995003-.0308609.1630173 0 .3261566.0104523.4892998.0308609.3261566.0408173.6523094.1219521.9581833.2344437.7747612.2951698 1.478096.8357353 1.967392 1.6207008z" fill="#7fd685"/></g></g><g><g><path d="m40.5952148 72.5697021c-.0664063 0-.1328125-.0029297-.199707-.0092773-.7124023-.065918-1.3427734-.4799805-1.6855469-1.107666l-1.5371094-2.7680664c-.1738281-.3081055-.4604492-.3317871-.590332-.3366699-.1191406.001709-.4130859.0393066-.5771484.3520508l-.6123047 1.1625977c-.3564453.6838379-1.0302734 1.1171875-1.8007813 1.1564941-.7651367.0427246-1.4882813-.3232422-1.9150391-.9707031l-2.6513672-4.0383301c-.1606445-.244873-.1640625-.560791-.0087891-.809082l4.8115234-7.6962891c.8803711-1.4038086 2.3964844-2.2412109 4.0556641-2.2412109 1.659668 0 3.1757813.8374023 4.0556641 2.2399902l4.9135742 7.8393555c.1708984.2724609.1489258.6230469-.0537109.8720703l-4.5258789 5.5559082c-.4155273.508789-1.0317382.798828-1.6787109.798828zm-4.0029296-5.7216796c.7832031 0 1.5053711.4211426 1.8901367 1.1049805l1.5415039 2.776123c.1069336.1960449.2919922.317627.5097656.3376465.2211914.0253906.434082-.0681152.5776367-.2438965l4.1860352-5.1386719-4.6279297-7.3835449c-.6040039-.9624023-1.6450195-1.5371094-2.7851563-1.5371094-1.1396484 0-2.1806641.574707-2.784668 1.5373535l-4.5561523 7.2875977 2.387207 3.6357422c.1884766.2854004.4707031.302002.5849609.296875.1123047-.0056152.3911133-.0517578.5488281-.3544922l.6132813-1.1647949c.3681641-.7001953 1.0898438-1.1425781 1.8833008-1.1538086z" fill="#0f0f0f"/></g></g><g><g><circle cx="51.91" cy="51.086" fill="#ffd9b0" r="4.928"/></g></g><g><g><path d="m56.8410797 51.0823593c0 2.7217445-2.212162 4.9337845-4.9339066 4.9337845-2.059227 0-3.8227844-1.2638092-4.5568542-3.0681839.5403175.214035 1.1315308.3260307 1.753479.3260307 2.7217445 0 4.9339066-2.2020836 4.9339066-4.9238243 0-.652565-.1325264-1.2842178-.3669739-1.8551483 1.8552704.6928787 3.1703491 2.4873009 3.1703491 4.5873413z" fill="#edb57e"/></g></g><g><g><path d="m51.9106445 56.7635498c-3.1308594 0-5.6782227-2.5471191-5.6782227-5.6779785 0-3.1306152 2.5473633-5.6777344 5.6782227-5.6777344s5.6777344 2.5471191 5.6777344 5.6777344c0 3.1308594-2.546875 5.6779785-5.6777344 5.6779785zm0-9.8557129c-2.3037109 0-4.1782227 1.8740234-4.1782227 4.1777344s1.8745117 4.1779785 4.1782227 4.1779785 4.1777344-1.8742676 4.1777344-4.1779785-1.8740234-4.1777344-4.1777344-4.1777344z" fill="#0f0f0f"/></g></g><g><g><g><g><path d="m18.8598633 50.6236572c-.2041016 0-.4033203-.083252-.5449219-.2304688-.1411133-.1472168-.2207031-.3457031-.2124023-.5498047.0292969-.7260742-.1411133-1.2836914-.5068359-1.6574707-.6210938-.6335449-1.637207-.6174316-1.6552734-.6203613-.4018555.0046387-.7563477-.3186035-.7666016-.7307129-.0102539-.4123535.3120117-.7558594.7241211-.7685547.0649414-.0021973 1.6704102-.0388184 2.7563477 1.0571289.0712891.0717773.1386719.1464844.2016602.223877.0629883-.0773926.1303711-.1520996.2016602-.223877 1.0859375-1.0957031 2.6894531-1.059082 2.7563477-1.0571289.4140625.0129395.7392578.3588867.7260742.7729492-.0126953.4128418-.3632813.732666-.769043.7263184-.0083008-.0002441-1.0371094-.010498-1.6547852.6203613-.3657227.3737793-.5361328.9313965-.5068359 1.6574707.0083008.2041016-.0673828.4025879-.2084961.5498047-.1416018.1472169-.3369143.2304688-.5410158.2304688z" fill="#0f0f0f"/></g></g><g><g><path d="m29.0537109 54.4573975c-.2041016 0-.4033203-.083252-.5449219-.2304688-.1411133-.1472168-.2207031-.3457031-.2124023-.5498047.0292969-.7260742-.1411133-1.2836914-.5068359-1.6572266-.6206055-.6342773-1.6469727-.6184082-1.6552734-.6206055-.4116211-.0100098-.7563477-.3186035-.7666016-.730957s.3120117-.7556152.7241211-.7685547c.0693359.0004883 1.6699219-.0388184 2.7563477 1.0576172.0712891.0717773.1386719.1464844.2016602.223877.0634766-.0773926.1303711-.1520996.2016602-.223877 1.0864258-1.0964355 2.6899414-1.0585938 2.7568359-1.0576172.4140625.0129395.7392578.3591309.7260742.7731934-.0126953.4128418-.3623047.7368164-.769043.7263184-.0185547-.0043945-1.0375977-.010498-1.6552734.6206055-.3657227.3737793-.5361328.9311523-.5068359 1.6572266.0083008.2041016-.0673828.4025879-.2084961.5498047-.1416017.1472167-.3369142.2304687-.5410158.2304687z" fill="#0f0f0f"/></g></g><g><g><path d="m20.0620117 60.288208c-.2041016 0-.4033203-.083252-.5449219-.2304688-.1411133-.1472168-.2207031-.3457031-.2124023-.5498047.0292969-.7260742-.1411133-1.2836914-.5068359-1.6572266-.6206055-.6342773-1.6464844-.621582-1.6552734-.6206055-.4130859-.0097656-.7563477-.3186035-.7666016-.730957s.3120117-.7556152.7241211-.7685547c.0639648.0004883 1.6699219-.0388184 2.7563477 1.0576172.0712891.0717773.1386719.1462402.2016602.2236328.0629883-.0773926.1303711-.1518555.2016602-.2236328 1.0859375-1.0964355 2.6879883-1.0583496 2.7563477-1.0576172.4140625.0129395.7392578.3591309.7260742.7731934-.0126953.4128418-.3642578.736084-.769043.7263184-.0083008-.003418-1.0371094-.010498-1.6547852.6206055-.3657227.3735352-.5361328.9311523-.5068359 1.6572266.0083008.2041016-.0673828.4025879-.2084961.5498047-.1416017.1472168-.3369142.2304687-.5410158.2304687z" fill="#0f0f0f"/></g></g></g><g><g><g><path d="m74.7749023 52.7938232c-.2041016 0-.4033203-.083252-.5449219-.2304688-.1411133-.1472168-.2207031-.3457031-.2124023-.5498047.0297852-.7304688-.1430664-1.2902832-.5136719-1.6643066-.6220703-.6279297-1.6289063-.6101074-1.644043-.6140137-.4165039.0300293-.7597656-.3122559-.7729492-.7260742-.0131836-.4140625.3120117-.7602539.7260742-.7731934.0693359.0004883 1.6699219-.0388184 2.7563477 1.0576172.0712891.0717773.1386719.1464844.2016602.223877.0629883-.0773926.1303711-.1520996.2016602-.223877 1.0864258-1.0964355 2.6914063-1.0583496 2.7563477-1.0576172.4140625.0129395.7392578.3591309.7260742.7731934-.0131836.4128418-.3505859.7453613-.769043.7263184-.012207.0002441-1.0366211-.010498-1.6547852.6206055-.3657227.3735352-.5361328.9313965-.5068359 1.6574707.0083008.2041016-.0673828.4025879-.2084961.5498047-.1416016.1472168-.3369141.2304687-.5410157.2304687z" fill="#0f0f0f"/></g></g><g><g><path d="m84.96875 56.6275635c-.2041016 0-.4033203-.083252-.5444336-.2304688-.1416016-.1472168-.2207031-.3457031-.2124023-.5498047.0014648-.0388184.0029297-.0769043.0029297-.1147461 0-.0292969 0-.0585938 0-.0876465-.0078125-.6320801-.1811523-1.1230469-.5166016-1.4614258-.6225586-.628418-1.6337891-.6123047-1.6445313-.6142578-.4091797.0246582-.7602539-.3122559-.7729492-.7260742-.0131836-.4140625.3120117-.7602539.7260742-.7731934.0683594.001709 1.6708984-.0385742 2.7568359 1.0576172.0712891.0717773.1381836.1462402.2011719.2236328.0634766-.0773926.1303711-.1518555.2016602-.2236328 1.0859375-1.0961914 2.6879883-1.0566406 2.7568359-1.0576172.4140625.0129395.7392578.3591309.7260742.7731934-.0131836.4128418-.3496094.7346191-.769043.7263184-.0102539-.0041504-1.0375977-.010498-1.6552734.6206055-.3310547.3381348-.5019531.8271484-.5097656 1.4550781v.0869141c0 .0378418.0014648.076416.0029297.1152344.0083008.2041016-.0673828.4025879-.2084961.5498047-.1416015.1472167-.336914.2304687-.5410156.2304687z" fill="#0f0f0f"/></g></g><g><g><path d="m75.9770508 62.458374c-.2041016 0-.4033203-.083252-.5449219-.2304688-.1411133-.1472168-.2207031-.3457031-.2124023-.5498047.0292969-.7260742-.1411133-1.2836914-.5068359-1.6572266-.6206055-.6342773-1.6376953-.6218262-1.6552734-.6206055-.4394531-.003418-.7563477-.3188477-.7666016-.730957-.0102539-.4123535.3120117-.7556152.7241211-.7685547.0678711.0019531 1.6699219-.0385742 2.7563477 1.0576172.0712891.0717773.1386719.1462402.2016602.2236328.0629883-.0773926.1303711-.1518555.2016602-.2236328 1.0864258-1.0964355 2.6918945-1.0593262 2.7563477-1.0576172.4140625.0129395.7392578.3591309.7260742.7731934-.0131836.4128418-.3515625.7338867-.769043.7263184-.012207-.003418-1.0366211-.010498-1.6547852.6206055-.3657227.3735352-.5361328.9311523-.5068359 1.6572266.0083008.2041016-.0673828.4025879-.2084961.5498047-.1416018.1472168-.3369143.2304687-.5410158.2304687z" fill="#0f0f0f"/></g></g></g></g></g><g><g><path d="m95.1533737 76.631691v6.9599609c0 10.0703125-20.0299072 18.2304688-44.75 18.2304688-24.7199707 0-44.7598877-8.1601563-44.7598877-18.2304688v-5.8999023c5.3999023-.1499023 13.8398447 1.090332 26.3398438 6.3500977 26.1401367 11 54.3200684-5.5 54.3200684-5.5s4.4699706-1.6499024 8.8499755-1.9101563z" fill="#aff2b6"/></g></g><g><g><path d="m95.0033493 85.0721207c-1.8499756 9.3798828-21.0999756 16.75-44.5999756 16.75-22.2698975 0-40.7299805-6.6201172-44.1700439-15.2900391 9.6401367 4.2197266 25.2600098 6.9599609 42.8901367 6.9599609 19.5998535 0 36.7099609-3.3798828 45.8798828-8.4199218z" fill="#7fd685"/></g></g><g><g><path d="m75.9726563 103.4102783c-.331543 0-.6347656-.2214355-.7241211-.5566406-.1069336-.4003906.1308594-.8112793.53125-.9182129 5.5712891-1.487793 10.2626953-3.4060059 13.9443359-5.7011719.3510742-.2185059.8139648-.1118164 1.0332031.2397461s.1118164.8139648-.2392578 1.0332031c-3.8081055 2.3737793-8.6367188 4.3513184-14.3515625 5.8774414-.0644531.017334-.1298828.0256348-.1938476.0256348z" fill="#0f0f0f"/></g></g><g><g><path d="m93.4145508 95.2418213c-.2133789 0-.4248047-.090332-.5732422-.265625-.2675781-.3164063-.2280273-.7895508.0883789-1.0571289.3881836-.3283691.7592773-.6638184 1.1113281-1.0063477.296875-.2885742.7719727-.2819824 1.0605469.0144043.2885742.296875.2822266.7717285-.0146484 1.060791-.3764648.3664551-.7729492.7253418-1.1884766 1.0766602-.1411133.1191406-.3129883.1772461-.4838867.1772461z" fill="#0f0f0f"/></g></g><g><g><path d="m50.4033203 102.5721436c-25.5195313 0-45.5097656-8.3371582-45.5097656-18.9804688v-5.8999023c0-.4060059.3232422-.7385254.7290039-.7497559 7.1123052-.1953125 16.0766602 1.9589844 26.6518555 6.4084473 25.4814453 10.7241211 53.3710938-5.2927246 53.6499023-5.4558105.0380859-.0222168.078125-.0412598.1191406-.0563965.1870117-.0688477 4.6254883-1.6914063 9.0654297-1.9553223.2075195-.0095215.4091797.0615234.5585938.2028809.1503906.1418457.2358398.3393555.2358398.5458984v6.9599609c0 10.6433106-19.9858398 18.9804688-45.5 18.9804688zm-44.0097661-24.1416016v5.1611328c0 9.6386719 19.7426758 17.4804688 44.0097656 17.4804688 24.2617188 0 44-7.8417969 44-17.4804688v-6.1489258c-3.6967773.3574219-7.293457 1.6071777-7.7841797 1.7824707-1.5195313.8630371-29.3383789 16.2749023-54.9267578 5.5080566-12.285644-5.1696777-20.4130854-6.3227538-25.2988281-6.3027343z" fill="#0f0f0f"/></g></g></g><g><g><g><path d="m31.1313648 29.4649296c-.7514915-.9149227-1.1269474-2.0282764-1.1269474-3.3403492h1.8500919c.0786781.9117413.249342 1.5744305.5114079 1.9874897.459343.7413673 1.2889328 1.111908 2.4893532 1.111908.9314079 0 1.6794281-.2493401 2.2434807-.7477322.5640526-.4983902.8463707-1.1414108.8463707-1.9284821 0-.9707489-.2967796-1.6496353-.8909149-2.0366631-.5935555-.3870277-1.4185181-.5805397-2.4743118-.5805397-.1180153 0-.2377701.0014458-.3592567.0049171-.1214867.0031815-.244133.0080986-.369091.0147514v-1.5645943c.1839676.0196686.3378525.0329742.4628105.0393391.124382.0066528.2591743.0098343.4032249.0098343.6623993 0 1.2067833-.1047115 1.6331482-.3147125.7480202-.3673573 1.1217422-1.0233936 1.1217422-1.9678211 0-.7020283-.2493401-1.2432289-.7474403-1.6236038-.4986801-.380373-1.0795097-.5707054-1.7419128-.5707054-1.180748 0-1.9970322.3936806-2.4500122 1.1807499-.2493401.4330196-.3899193 1.0494289-.4228935 1.8498039h-1.7511673c0-1.049427.2094231-1.9414978.629425-2.6762123.7214088-1.3120728 1.9906731-1.9678211 3.8077888-1.9678211 1.4364548 0 2.5483627.3196297 3.3357201.9591789.7867813.6395493 1.1807518 1.5660419 1.1807518 2.7794781 0 .8660374-.2331429 1.5680656-.6988487 2.1057968-.2886772.3343811-.6623993.5970268-1.1217422.7870693.7416573.2033482 1.3201752.595293 1.7367058 1.1758327.4165306.5805416.6247978 1.2906685.6247978 2.1300945 0 1.344759-.4425659 2.4401779-1.3282738 3.2865467-.8857079.8460789-2.1416626 1.2692623-3.7684479 1.2692623-1.6661264.0000002-2.8746454-.4576052-3.625559-1.3728159z"/></g></g><g><g><path d="m49.914608 17.5298653c.6195908.816864.9296722 1.6580257.9296722 2.5237732h-1.7511673c-.1052895-.5573997-.27248-.9936008-.5021515-1.3086014-.4263649-.5903759-1.072567-.8854179-1.9380264-.8854179-.9904175 0-1.7777786.4576054-2.3614998 1.3725281-.5837212.9152107-.9088478 2.2255497-.9742203 3.9307232.4066963-.5967388.9181061-1.0427742 1.5348015-1.3381062.5640526-.2620678 1.1940575-.3933907 1.889431-.3933907 1.1807518 0 2.2105103.3771915 3.0892754 1.1312866.8793411.754385 1.3184357 1.8793087 1.3184357 3.3750591 0 1.2790985-.4165306 2.4121208-1.2495918 3.3993568-.833065.9872379-2.0201759 1.4810009-3.5619202 1.4810009-1.3184395 0-2.4563789-.5001278-3.4138222-1.5006695-.9580193-1.0002537-1.436451-2.6843128-1.436451-5.0524654 0-1.7514553.2128906-3.2370834.6392593-4.4571724.8197556-2.3351784 2.3186874-3.5029106 4.4967995-3.5029106 1.5741425.0000001 2.6710053.4084321 3.2911759 1.2250062zm-1.3282738 10.7742729c.4622345-.6265335.6936417-1.3661652.6936417-2.2188969 0-.7214088-.2065315-1.4086857-.6201706-2.0612507-.4130592-.652565-1.1639709-.9791374-2.252739-.9791374-.7613258 0-1.4289322.2525215-2.0028191.7575665-.5738869.5053329-.8608322 1.2660809-.8608322 2.2828217 0 .8920708.26091 1.6415386.7821541 2.2483997.5218201.606575 1.2449646.9100056 2.1700096.9100056.930832-.0000001 1.627945-.3132668 2.0907555-.9395085z"/></g></g><g><g><path d="m61.3426018 18.6171856c.6300049 1.1610794.9447174 2.751709.9447174 4.7721729 0 1.9154663-.2852097 3.4994411-.8556252 4.7522163-.8266983 1.7974472-2.178112 2.6961708-4.0542374 2.6961708-1.6921577 0-2.9515877-.7347145-3.778286-2.2041435-.6884308-1.2264519-1.03265-2.8729076-1.03265-4.9393654 0-1.6004639.2065315-2.9747257.6195908-4.1225014.7740555-2.138483 2.1746407-3.2075787 4.2011795-3.2075787 1.8234826.0000001 3.1419182.7509137 3.9553109 2.253029zm-1.7806702 9.3867035c.544384-.8133945.816864-2.3285255.816864-4.5456867 0-1.600462-.1966972-2.9174538-.5906639-3.9503937-.3933907-1.0332279-1.1576118-1.5498428-2.2926559-1.5498428-1.0424881 0-1.8055496.4905815-2.2874527 1.4708767-.4819031.9808731-.7231445 2.4254265-.7231445 4.3342381 0 1.4367428.1538849 2.5911713.4622345 3.4635715.4726486 1.3317432 1.2790985 1.9973259 2.4205093 1.9973259.9186821-.0000001 1.6499252-.4066964 2.1943092-1.220089z"/></g></g><g><g><path d="m70.094429 16.8045177c.4663773.6230621.699707 1.4204159.699707 2.3916416 0 1.0512581-.2668686 1.9251232-.8003159 2.6217327-.626442.8179283-1.5194702 1.2269611-2.6793594 1.2269611-1.0832443 0-1.9345627-.3578873-2.5545197-1.0736599-.5528946-.6901302-.8290596-1.5624447-.8290596-2.6168022 0-.9522038.2364311-1.7668896.7092934-2.4443398.6069946-.869072 1.5048141-1.30375 2.6934509-1.30375 1.2430192.0000001 2.1631013.3994514 2.7608033 1.1982165zm-.8411789 4.4837304c.3753586-.6022072.5630341-1.2948742.5630341-2.0777168 0-.827507-.2164154-1.4936848-.6492615-1.9985294-.4331284-.5048466-1.02491-.7573395-1.7759094-.7573395-.7284546 0-1.3227768.2500973-1.782959.7501526-.4598923.5000553-.6901245 1.2372475-.6901245 2.2118549 0 .7796001.197258 1.4370422.5920639 1.9721813.394516.5352802 1.0342026.8028507 1.919342.8028507.8403321 0 1.4481736-.3011036 1.8238144-.9034538z"/></g></g></g><g><g><path d="m2.3769529 55.0985107c-.4140625 0-.75-.3356934-.75-.75v-15.3933105c0-.4143066.3359375-.75.75-.75s.75.3356934.75.75v15.3933105c0 .4143067-.3359375.75-.75.75z" fill="#0f0f0f"/></g></g><g><g><path d="m2.3769529 35.5802002c-.4140625 0-.75-.3356934-.75-.75v-1.458252c0-.4143066.3359375-.75.75-.75s.75.3356934.75.75v1.458252c0 .4143066-.3359375.75-.75.75z" fill="#0f0f0f"/></g></g></g><g><g><path d="m103.225975 9.13834c-3.1710892.6530428-5.6654816 3.1553221-6.3185272 6.3264122-.039299.1887321-.2910995.1887321-.3305206 0-.3225174-1.5895481-1.1093521-3.0058889-2.2189407-4.1074743-1.0936966-1.1015854-2.5100403-1.8962984-4.0994644-2.2189379-.188858-.039299-.188858-.2911043 0-.3305244 1.5894241-.3225183 3.0057678-1.1172318 4.1073532-2.2189384 1.1016998-1.1015849 1.8885345-2.5179262 2.2110519-4.1073527.0394211-.1888535.2912216-.1888535.3305206 0 .3226395 1.5894265 1.1094742 3.0057678 2.2110596 4.1073527 1.1015854 1.1017065 2.5179214 1.89642 4.1074677 2.2189384.1887359.0394201.1887359.2912254-.0000001.3305244z" fill="#abecef"/></g></g><g><g><path d="m103.2291336 9.1342154c-3.1777649.6526794-5.670578 3.1562929-6.3232574 6.3339329-.0428162.181818-.2888031.181818-.3317413 0-.3102646-1.5193195-1.0269852-2.878046-2.0542221-3.9479733 2.4608002-.4493914 4.3331985-2.5464306 4.4401855-5.1142077.0428162.0641637.1069794.1283278.1604691.1818185 1.102066 1.1020703 2.5144043 1.8937511 4.1085663 2.2148142.181816.042695.181816.2994727-.0000001.3316154z" fill="#75c5c9"/></g></g><g><g><path d="m96.7421875 16.3563232c-.4394531 0-.8095703-.3041992-.8994141-.739502-.2880859-1.4177246-.9838867-2.7055664-2.0131836-3.7272949-1.0273438-1.0344238-2.3125-1.7304688-3.7207031-2.0161133-.4379883-.0915527-.7416992-.4611816-.7416992-.8996582-.0004883-.4387207.3027344-.8088379.7373047-.9001465 1.409668-.2858887 2.6982422-.9824219 3.730957-2.0148926 1.0258789-1.0258789 1.7202148-2.3144531 2.0068359-3.7263184.090332-.4382324.4604492-.7426758.8999023-.7426758s.8095703.3044434.8994141.7399902c.2871094 1.4140625.980957 2.7023926 2.0073242 3.7290039 1.0327148 1.0324707 2.3212891 1.7290039 3.7260742 2.013916.4394531.0922852.7426758.4624023.7421875.901123 0 .4384766-.3037109.8081055-.737793.8986816-.0009766.0002441-.0014648.0002441-.0019531.0004883-2.8881836.5947266-5.1391602 2.8491211-5.7358398 5.7431641-.0898437.4360354-.4599609.7402346-.899414.7402346zm-4.543457-7.3833007c.9956055.4399414 1.9077148 1.0666504 2.6914063 1.855957.7866211.7807617 1.4125977 1.6933594 1.8530273 2.6936035.8930664-2.0314941 2.515625-3.6557617 4.5439453-4.5488281-.9956055-.4394531-1.909668-1.0654297-2.6987305-1.8544922-.7841797-.7841797-1.4072266-1.6960449-1.8461914-2.692627-.4384766.9963379-1.0620117 1.9084473-1.8461914 2.692627-.7880859.7883301-1.7016602 1.4138184-2.6972656 1.8537598zm11.0273437.1652832h.0097656z" fill="#0f0f0f"/></g></g><g><g><g><g><path d="m9.6523218 98.3814926c0 2.2188873-1.7946825 4.0135727-4.0058732 4.0135727-2.2188919 0-4.0135746-1.7946854-4.0135746-4.0135727 0-2.2111893 1.7946826-4.0058746 4.0135746-4.0058746 2.2111907 0 4.0058732 1.7946853 4.0058732 4.0058746z" fill="#ff84a0"/></g></g><g><g><path d="m9.6528273 98.3802261c0 2.2157364-1.7991018 4.0148392-4.0054951 4.0148392-1.7328186 0-3.2195709-1.1078644-3.7781129-2.6513062.6060132.3692856 1.3256539.5870743 2.092639.5870743 2.2157354 0 4.0149636-1.7992249 4.0149636-4.0149612 0-.4639816-.0757518-.9184875-.2273812-1.3351212 1.1364007.7006989 1.9033866 1.9600678 1.9033866 3.3994751z" fill="#f76189"/></g></g><g><g><path d="m5.6464839 103.1451416c-2.6264646 0-4.7636719-2.1369629-4.7636719-4.7636719 0-2.6223145 2.137207-4.7558594 4.7636719-4.7558594 2.6225591 0 4.7558599 2.1335449 4.7558599 4.7558594 0 2.626709-2.1333008 4.7636719-4.7558599 4.7636719zm0-8.0195312c-1.7998044 0-3.2636716 1.4606934-3.2636716 3.2558594 0 1.7995605 1.4638672 3.2636719 3.2636716 3.2636719 1.7954102 0 3.2558599-1.4641113 3.2558599-3.2636719 0-1.7951661-1.4604497-3.2558594-3.2558599-3.2558594z" fill="#0f0f0f"/></g></g></g></g></g></svg>