<?xml version="1.0" encoding="UTF-8"?>
<!DOCTYPE svg PUBLIC "-//W3C//DTD SVG 1.1//EN" "http://www.w3.org/Graphics/SVG/1.1/DTD/svg11.dtd">
<svg xmlns="http://www.w3.org/2000/svg" version="1.1" width="48px" height="48px" style="shape-rendering:geometricPrecision; text-rendering:geometricPrecision; image-rendering:optimizeQuality; fill-rule:evenodd; clip-rule:evenodd" xmlns:xlink="http://www.w3.org/1999/xlink">
<g><path style="opacity:1" fill="#1b1c29" d="M 7.5,-0.5 C 9.16667,-0.5 10.8333,-0.5 12.5,-0.5C 12.7031,1.04432 13.3698,2.37765 14.5,3.5C 12.8327,4.66637 11.166,4.66637 9.5,3.5C 9.26714,1.93819 8.60048,0.60486 7.5,-0.5 Z"/></g>
<g><path style="opacity:1" fill="#121623" d="M 39.5,-0.5 C 42.1667,-0.5 44.8333,-0.5 47.5,-0.5C 47.5,2.5 47.5,5.5 47.5,8.5C 46.0221,7.55247 45.0221,6.21914 44.5,4.5C 44.631,3.76109 44.4643,3.09442 44,2.5C 41.9737,2.08527 40.4737,1.08527 39.5,-0.5 Z"/></g>
<g><path style="opacity:1" fill="#0b1b23" d="M 27.5,-0.5 C 31.5,-0.5 35.5,-0.5 39.5,-0.5C 40.4737,1.08527 41.9737,2.08527 44,2.5C 44.4643,3.09442 44.631,3.76109 44.5,4.5C 44.5,5.5 44.5,6.5 44.5,7.5C 43.209,7.26269 42.209,7.59603 41.5,8.5C 39.6207,7.10317 37.9541,5.4365 36.5,3.5C 36.5,2.83333 36.1667,2.5 35.5,2.5C 32.5234,2.09843 29.8567,1.09843 27.5,-0.5 Z"/></g>
<g><path style="opacity:1" fill="#111727" d="M 17.5,-0.5 C 20.8333,-0.5 24.1667,-0.5 27.5,-0.5C 29.8567,1.09843 32.5234,2.09843 35.5,2.5C 33.4727,2.33788 31.4727,2.50454 29.5,3C 28.944,3.38258 28.6107,3.88258 28.5,4.5C 27.609,3.89022 26.609,3.55688 25.5,3.5C 25.2172,2.71087 24.7172,2.0442 24,1.5C 22.2739,2.57622 20.4406,2.74289 18.5,2C 17.7476,1.32924 17.4142,0.495904 17.5,-0.5 Z"/></g>
<g><path style="opacity:1" fill="#181627" d="M 35.5,2.5 C 36.1667,2.5 36.5,2.83333 36.5,3.5C 36.1788,5.04814 35.1788,5.71481 33.5,5.5C 31.7085,5.63404 30.0418,5.30071 28.5,4.5C 28.6107,3.88258 28.944,3.38258 29.5,3C 31.4727,2.50454 33.4727,2.33788 35.5,2.5 Z"/></g>
<g><path style="opacity:1" fill="#111e27" d="M 2.5,-0.5 C 4.16667,-0.5 5.83333,-0.5 7.5,-0.5C 8.60048,0.60486 9.26714,1.93819 9.5,3.5C 9.16667,4.5 8.5,5.16667 7.5,5.5C 5.5,5.5 3.5,5.5 1.5,5.5C 1.51715,3.43525 1.85048,1.43525 2.5,-0.5 Z"/></g>
<g><path style="opacity:1" fill="#13222f" d="M 12.5,-0.5 C 14.1667,-0.5 15.8333,-0.5 17.5,-0.5C 17.4142,0.495904 17.7476,1.32924 18.5,2C 20.4406,2.74289 22.2739,2.57622 24,1.5C 24.7172,2.0442 25.2172,2.71087 25.5,3.5C 22.2869,3.19 19.2869,3.52333 16.5,4.5C 16.5,5.16667 16.5,5.83333 16.5,6.5C 12.693,5.7741 10.0263,7.10743 8.5,10.5C 8.5,10.8333 8.5,11.1667 8.5,11.5C 8.16667,11.5 7.83333,11.5 7.5,11.5C 6.83333,11.5 6.16667,11.5 5.5,11.5C 5.72142,10.2652 6.38809,9.26515 7.5,8.5C 6.97473,7.80762 6.30806,7.30762 5.5,7C 6.4158,6.72158 7.08247,6.22158 7.5,5.5C 8.5,5.16667 9.16667,4.5 9.5,3.5C 11.166,4.66637 12.8327,4.66637 14.5,3.5C 13.3698,2.37765 12.7031,1.04432 12.5,-0.5 Z"/></g>
<g><path style="opacity:1" fill="#191b28" d="M -0.5,-0.5 C 0.5,-0.5 1.5,-0.5 2.5,-0.5C 1.85048,1.43525 1.51715,3.43525 1.5,5.5C 3.5,5.5 5.5,5.5 7.5,5.5C 7.08247,6.22158 6.4158,6.72158 5.5,7C 6.30806,7.30762 6.97473,7.80762 7.5,8.5C 6.38809,9.26515 5.72142,10.2652 5.5,11.5C 4.5,11.5 3.5,11.5 2.5,11.5C 2.28649,9.85613 2.61983,8.35613 3.5,7C 2.20677,6.50999 0.873441,6.34332 -0.5,6.5C -0.5,4.16667 -0.5,1.83333 -0.5,-0.5 Z"/></g>
<g><path style="opacity:1" fill="#092e38" d="M 16.5,4.5 C 19.2869,3.52333 22.2869,3.19 25.5,3.5C 26.609,3.55688 27.609,3.89022 28.5,4.5C 30.0418,5.30071 31.7085,5.63404 33.5,5.5C 34.1667,6.16667 34.8333,6.83333 35.5,7.5C 35.8333,8.16667 36.1667,8.83333 36.5,9.5C 35.391,9.44312 34.391,9.10978 33.5,8.5C 33.1667,8.5 32.8333,8.5 32.5,8.5C 31.4863,7.32627 30.153,6.6596 28.5,6.5C 26.9724,5.69079 25.3057,5.02412 23.5,4.5C 22.2652,4.72142 21.2652,5.38809 20.5,6.5C 19.8165,6.13727 19.1499,5.80393 18.5,5.5C 18.1583,4.66175 17.4916,4.32842 16.5,4.5 Z"/></g>
<g><path style="opacity:1" fill="#101a22" d="M 44.5,4.5 C 45.0221,6.21914 46.0221,7.55247 47.5,8.5C 47.5,10.8333 47.5,13.1667 47.5,15.5C 46.1001,14.9002 45.1001,13.9002 44.5,12.5C 44.2294,10.5695 43.2294,9.23621 41.5,8.5C 42.209,7.59603 43.209,7.26269 44.5,7.5C 44.5,6.5 44.5,5.5 44.5,4.5 Z"/></g>
<g><path style="opacity:1" fill="#66c6ca" d="M 23.5,4.5 C 23.281,5.67504 23.6143,6.67504 24.5,7.5C 25.7362,6.75415 27.0695,6.42082 28.5,6.5C 28.5,7.83333 28.5,9.16667 28.5,10.5C 27.5,10.5 26.5,10.5 25.5,10.5C 22.8729,9.84311 20.2062,9.50977 17.5,9.5C 17.2322,7.90097 17.5655,6.56764 18.5,5.5C 19.1499,5.80393 19.8165,6.13727 20.5,6.5C 21.2652,5.38809 22.2652,4.72142 23.5,4.5 Z"/></g>
<g><path style="opacity:1" fill="#155d65" d="M 23.5,4.5 C 25.3057,5.02412 26.9724,5.69079 28.5,6.5C 27.0695,6.42082 25.7362,6.75415 24.5,7.5C 23.6143,6.67504 23.281,5.67504 23.5,4.5 Z"/></g>
<g><path style="opacity:1" fill="#171628" d="M 36.5,3.5 C 37.9541,5.4365 39.6207,7.10317 41.5,8.5C 43.2294,9.23621 44.2294,10.5695 44.5,12.5C 44.6495,13.552 44.4828,14.552 44,15.5C 41.9322,11.9295 39.0988,9.26287 35.5,7.5C 34.8333,6.83333 34.1667,6.16667 33.5,5.5C 35.1788,5.71481 36.1788,5.04814 36.5,3.5 Z"/></g>
<g><path style="opacity:1" fill="#53adb0" d="M 16.5,4.5 C 17.4916,4.32842 18.1583,4.66175 18.5,5.5C 17.5655,6.56764 17.2322,7.90097 17.5,9.5C 15.9366,11.3334 14.27,13.0001 12.5,14.5C 11.8333,14.8333 11.1667,15.1667 10.5,15.5C 10.0472,14.5416 9.38053,13.7083 8.5,13C 11.0972,12.2208 11.0972,11.7208 8.5,11.5C 8.5,11.1667 8.5,10.8333 8.5,10.5C 10.9229,10.5764 12.7562,9.57643 14,7.5C 15.7261,9.09784 16.5594,8.76451 16.5,6.5C 16.5,5.83333 16.5,5.16667 16.5,4.5 Z"/></g>
<g><path style="opacity:1" fill="#073941" d="M 16.5,6.5 C 16.5594,8.76451 15.7261,9.09784 14,7.5C 12.7562,9.57643 10.9229,10.5764 8.5,10.5C 10.0263,7.10743 12.693,5.7741 16.5,6.5 Z"/></g>
<g><path style="opacity:1" fill="#288282" d="M 28.5,6.5 C 30.153,6.6596 31.4863,7.32627 32.5,8.5C 31.1667,9.16667 29.8333,9.83333 28.5,10.5C 28.5,9.16667 28.5,7.83333 28.5,6.5 Z"/></g>
<g><path style="opacity:1" fill="#66c8c9" d="M 32.5,8.5 C 32.8333,8.5 33.1667,8.5 33.5,8.5C 32.1121,9.54688 31.2787,10.8802 31,12.5C 29.699,12.3613 28.8656,11.6946 28.5,10.5C 29.8333,9.83333 31.1667,9.16667 32.5,8.5 Z"/></g>
<g><path style="opacity:1" fill="#0c5a6a" d="M 17.5,9.5 C 20.2062,9.50977 22.8729,9.84311 25.5,10.5C 24.1667,11.1667 22.8333,11.8333 21.5,12.5C 18.812,12.1658 16.4786,12.8325 14.5,14.5C 13.8333,14.5 13.1667,14.5 12.5,14.5C 14.27,13.0001 15.9366,11.3334 17.5,9.5 Z"/></g>
<g><path style="opacity:1" fill="#05333d" d="M 37.5,10.5 C 40.5177,11.855 41.851,14.1884 41.5,17.5C 40.8333,16.8333 40.1667,16.1667 39.5,15.5C 39.1667,14.5 38.5,13.8333 37.5,13.5C 37.5,12.5 37.5,11.5 37.5,10.5 Z"/></g>
<g><path style="opacity:1" fill="#121f2c" d="M -0.5,6.5 C 0.873441,6.34332 2.20677,6.50999 3.5,7C 2.61983,8.35613 2.28649,9.85613 2.5,11.5C 3.5,11.5 4.5,11.5 5.5,11.5C 5.44312,12.609 5.10978,13.609 4.5,14.5C 3.83333,14.5 3.5,14.8333 3.5,15.5C 2.04125,15.4326 0.707917,15.7659 -0.5,16.5C -0.5,13.1667 -0.5,9.83333 -0.5,6.5 Z"/></g>
<g><path style="opacity:1" fill="#409ca6" d="M 21.5,12.5 C 23.9029,12.448 26.2362,12.7814 28.5,13.5C 27.3281,14.7053 25.9948,14.7053 24.5,13.5C 23.8182,14.2427 23.1515,14.9094 22.5,15.5C 21.791,14.596 20.791,14.2627 19.5,14.5C 19.5,15.5 19.5,16.5 19.5,17.5C 18.596,18.209 18.2627,19.209 18.5,20.5C 18.1667,20.5 17.8333,20.5 17.5,20.5C 17.6068,18.6214 17.1068,18.2881 16,19.5C 15.7216,18.5842 15.2216,17.9175 14.5,17.5C 14.5,16.8333 14.1667,16.5 13.5,16.5C 13.8333,15.8333 14.1667,15.1667 14.5,14.5C 16.4786,12.8325 18.812,12.1658 21.5,12.5 Z"/></g>
<g><path style="opacity:1" fill="#19646e" d="M 33.5,8.5 C 34.391,9.10978 35.391,9.44312 36.5,9.5C 37.1667,9.5 37.5,9.83333 37.5,10.5C 37.5,11.5 37.5,12.5 37.5,13.5C 35.8041,15.129 34.8041,14.7957 34.5,12.5C 33.9033,12.7352 33.5699,13.2352 33.5,14C 34.5,15.5 35.5,17 36.5,18.5C 38.2131,18.1207 39.2131,17.1207 39.5,15.5C 40.1667,16.1667 40.8333,16.8333 41.5,17.5C 41.5,17.8333 41.5,18.1667 41.5,18.5C 39.8211,18.8923 38.1545,19.3923 36.5,20C 38.0581,20.21 39.3915,20.71 40.5,21.5C 39.8333,21.5 39.1667,21.5 38.5,21.5C 37.391,21.5569 36.391,21.8902 35.5,22.5C 34.8333,21.1667 34.1667,19.8333 33.5,18.5C 32.1667,16.5 30.5,14.8333 28.5,13.5C 26.2362,12.7814 23.9029,12.448 21.5,12.5C 22.8333,11.8333 24.1667,11.1667 25.5,10.5C 26.5,10.5 27.5,10.5 28.5,10.5C 28.8656,11.6946 29.699,12.3613 31,12.5C 31.2787,10.8802 32.1121,9.54688 33.5,8.5 Z"/></g>
<g><path style="opacity:1" fill="#86d8dd" d="M 34.5,12.5 C 34.6395,10.663 35.3061,10.3296 36.5,11.5C 36.0431,12.2975 35.3764,12.6309 34.5,12.5 Z"/></g>
<g><path style="opacity:1" fill="#85f1f4" d="M 22.5,15.5 C 21.7095,16.4013 20.7095,17.0679 19.5,17.5C 19.5,16.5 19.5,15.5 19.5,14.5C 20.791,14.2627 21.791,14.596 22.5,15.5 Z"/></g>
<g><path style="opacity:1" fill="#64c4c6" d="M 34.5,12.5 C 34.8041,14.7957 35.8041,15.129 37.5,13.5C 38.5,13.8333 39.1667,14.5 39.5,15.5C 39.2131,17.1207 38.2131,18.1207 36.5,18.5C 35.5,17 34.5,15.5 33.5,14C 33.5699,13.2352 33.9033,12.7352 34.5,12.5 Z"/></g>
<g><path style="opacity:1" fill="#085156" d="M 5.5,11.5 C 6.16667,11.5 6.83333,11.5 7.5,11.5C 7.01368,13.8067 7.01368,15.9734 7.5,18C 6.36495,18.7494 5.36495,18.5827 4.5,17.5C 5.65268,16.3132 5.65268,15.3132 4.5,14.5C 5.10978,13.609 5.44312,12.609 5.5,11.5 Z"/></g>
<g><path style="opacity:1" fill="#151d2e" d="M 35.5,7.5 C 39.0988,9.26287 41.9322,11.9295 44,15.5C 44.4828,14.552 44.6495,13.552 44.5,12.5C 45.1001,13.9002 46.1001,14.9002 47.5,15.5C 47.5,16.5 47.5,17.5 47.5,18.5C 46.5041,18.5858 45.6708,18.2524 45,17.5C 43.6072,20.1251 42.4405,20.1251 41.5,17.5C 41.851,14.1884 40.5177,11.855 37.5,10.5C 37.5,9.83333 37.1667,9.5 36.5,9.5C 36.1667,8.83333 35.8333,8.16667 35.5,7.5 Z"/></g>
<g><path style="opacity:1" fill="#64bbc1" d="M 7.5,11.5 C 7.83333,11.5 8.16667,11.5 8.5,11.5C 11.0972,11.7208 11.0972,12.2208 8.5,13C 9.38053,13.7083 10.0472,14.5416 10.5,15.5C 9.76109,15.369 9.09442,15.5357 8.5,16C 9.67615,19.3092 8.34281,20.8092 4.5,20.5C 4.16667,20.5 3.83333,20.5 3.5,20.5C 2.16667,18.8333 2.16667,17.1667 3.5,15.5C 3.5,14.8333 3.83333,14.5 4.5,14.5C 5.65268,15.3132 5.65268,16.3132 4.5,17.5C 5.36495,18.5827 6.36495,18.7494 7.5,18C 7.01368,15.9734 7.01368,13.8067 7.5,11.5 Z"/></g>
<g><path style="opacity:1" fill="#2e8b92" d="M 28.5,13.5 C 30.5,14.8333 32.1667,16.5 33.5,18.5C 33.1667,19.1667 32.8333,19.8333 32.5,20.5C 32.1667,20.5 31.8333,20.5 31.5,20.5C 31.573,18.9731 30.9063,17.9731 29.5,17.5C 26.8869,16.0073 24.8869,16.6739 23.5,19.5C 22.5041,19.4142 21.6708,19.7476 21,20.5C 20.6667,19.8333 20.3333,19.1667 20,18.5C 19.7216,19.4158 19.2216,20.0825 18.5,20.5C 18.2627,19.209 18.596,18.209 19.5,17.5C 20.7095,17.0679 21.7095,16.4013 22.5,15.5C 23.1515,14.9094 23.8182,14.2427 24.5,13.5C 25.9948,14.7053 27.3281,14.7053 28.5,13.5 Z"/></g>
<g><path style="opacity:1" fill="#379098" d="M 13.5,16.5 C 14.1667,16.5 14.5,16.8333 14.5,17.5C 13.0687,18.7804 12.4021,20.4471 12.5,22.5C 13.5,22.5 14.5,22.5 15.5,22.5C 14.7095,23.4013 13.7095,24.0679 12.5,24.5C 11.7784,24.0825 11.2784,23.4158 11,22.5C 10.5065,24.1341 10.3398,25.8008 10.5,27.5C 10.1667,27.5 9.83333,27.5 9.5,27.5C 8.65723,22.9057 9.99056,19.2391 13.5,16.5 Z"/></g>
<g><path style="opacity:1" fill="#68d5d8" d="M 14.5,17.5 C 15.2216,17.9175 15.7216,18.5842 16,19.5C 17.1068,18.2881 17.6068,18.6214 17.5,20.5C 16.8333,20.5 16.5,20.8333 16.5,21.5C 16.5,22.1667 16.1667,22.5 15.5,22.5C 14.5,22.5 13.5,22.5 12.5,22.5C 12.4021,20.4471 13.0687,18.7804 14.5,17.5 Z"/></g>
<g><path style="opacity:1" fill="#5edfdc" d="M 29.5,17.5 C 30.9063,17.9731 31.573,18.9731 31.5,20.5C 30.391,20.5569 29.391,20.8902 28.5,21.5C 27.8592,20.5178 27.1925,19.5178 26.5,18.5C 27.325,17.6143 28.325,17.281 29.5,17.5 Z"/></g>
<g><path style="opacity:1" fill="#87c9cd" d="M 41.5,18.5 C 41.5,19.5 41.5,20.5 41.5,21.5C 41.1667,21.5 40.8333,21.5 40.5,21.5C 39.3915,20.71 38.0581,20.21 36.5,20C 38.1545,19.3923 39.8211,18.8923 41.5,18.5 Z"/></g>
<g><path style="opacity:1" fill="#1d5f6b" d="M 12.5,14.5 C 13.1667,14.5 13.8333,14.5 14.5,14.5C 14.1667,15.1667 13.8333,15.8333 13.5,16.5C 9.99056,19.2391 8.65723,22.9057 9.5,27.5C 8.69808,26.0484 8.19808,24.3817 8,22.5C 6.69762,21.9152 5.53095,21.2485 4.5,20.5C 8.34281,20.8092 9.67615,19.3092 8.5,16C 9.09442,15.5357 9.76109,15.369 10.5,15.5C 11.1667,15.1667 11.8333,14.8333 12.5,14.5 Z"/></g>
<g><path style="opacity:1" fill="#4f9fab" d="M 29.5,17.5 C 28.325,17.281 27.325,17.6143 26.5,18.5C 27.1925,19.5178 27.8592,20.5178 28.5,21.5C 27.8333,22.1667 27.1667,22.8333 26.5,23.5C 25.1667,22.1667 23.8333,22.1667 22.5,23.5C 21.9569,23.44 21.6236,23.1067 21.5,22.5C 22.6119,21.7348 23.2786,20.7348 23.5,19.5C 24.8869,16.6739 26.8869,16.0073 29.5,17.5 Z"/></g>
<g><path style="opacity:1" fill="#142631" d="M 41.5,17.5 C 42.4405,20.1251 43.6072,20.1251 45,17.5C 45.6708,18.2524 46.5041,18.5858 47.5,18.5C 47.5,20.5 47.5,22.5 47.5,24.5C 46.2921,23.7659 44.9587,23.4326 43.5,23.5C 43.1583,22.6618 42.4916,22.3284 41.5,22.5C 41.5,22.1667 41.5,21.8333 41.5,21.5C 41.5,20.5 41.5,19.5 41.5,18.5C 41.5,18.1667 41.5,17.8333 41.5,17.5 Z"/></g>
<g><path style="opacity:1" fill="#11242f" d="M 3.5,15.5 C 2.16667,17.1667 2.16667,18.8333 3.5,20.5C 5.72178,23.6843 6.88845,27.3509 7,31.5C 7.9947,32.0659 8.82803,32.7326 9.5,33.5C 7.4727,33.6621 5.4727,33.4955 3.5,33C 4.4158,32.7216 5.08247,32.2216 5.5,31.5C 5.7989,29.396 5.46557,27.396 4.5,25.5C 3.99554,28.3418 2.32887,29.6751 -0.5,29.5C -0.5,25.1667 -0.5,20.8333 -0.5,16.5C 0.707917,15.7659 2.04125,15.4326 3.5,15.5 Z"/></g>
<g><path style="opacity:1" fill="#3599a1" d="M 31.5,20.5 C 31.8333,20.5 32.1667,20.5 32.5,20.5C 32.5,21.5 32.5,22.5 32.5,23.5C 31.209,23.2627 30.209,23.596 29.5,24.5C 28.2151,26.6589 26.5485,27.3255 24.5,26.5C 25.5511,25.7777 26.2178,24.7777 26.5,23.5C 27.1667,22.8333 27.8333,22.1667 28.5,21.5C 29.391,20.8902 30.391,20.5569 31.5,20.5 Z"/></g>
<g><path style="opacity:1" fill="#2f7884" d="M 33.5,18.5 C 34.1667,19.8333 34.8333,21.1667 35.5,22.5C 35.7359,25.6085 35.4025,28.6085 34.5,31.5C 33.596,30.791 33.2627,29.791 33.5,28.5C 33.3404,26.847 32.6737,25.5137 31.5,24.5C 30.8333,24.5 30.1667,24.5 29.5,24.5C 30.209,23.596 31.209,23.2627 32.5,23.5C 32.5,22.5 32.5,21.5 32.5,20.5C 32.8333,19.8333 33.1667,19.1667 33.5,18.5 Z"/></g>
<g><path style="opacity:1" fill="#1b202d" d="M 41.5,22.5 C 42.4916,22.3284 43.1583,22.6618 43.5,23.5C 45.3505,24.8664 45.6838,26.533 44.5,28.5C 42.512,26.8528 41.1787,27.1861 40.5,29.5C 40.5,29.8333 40.5,30.1667 40.5,30.5C 39.3065,30.0296 38.6399,29.0296 38.5,27.5C 38.3227,25.0321 39.3227,23.3654 41.5,22.5 Z"/></g>
<g><path style="opacity:1" fill="#124a5f" d="M 16.5,21.5 C 17.7498,21.5774 18.5831,22.244 19,23.5C 19.3333,23.1667 19.6667,22.8333 20,22.5C 20.8942,28.3025 24.0608,29.9692 29.5,27.5C 29.8333,28.1667 30.1667,28.8333 30.5,29.5C 29.4937,29.9377 29.4937,30.6043 30.5,31.5C 28.7839,31.6287 27.1172,31.962 25.5,32.5C 25.5,31.5 25.5,30.5 25.5,29.5C 23.7085,29.366 22.0418,29.6993 20.5,30.5C 20.6716,29.5084 20.3382,28.8417 19.5,28.5C 18.713,26.8958 17.3797,26.2291 15.5,26.5C 15.5,27.5 15.5,28.5 15.5,29.5C 14.6923,27.7798 13.6923,26.1131 12.5,24.5C 13.7095,24.0679 14.7095,23.4013 15.5,22.5C 16.1667,22.5 16.5,22.1667 16.5,21.5 Z"/></g>
<g><path style="opacity:1" fill="#28707f" d="M 23.5,19.5 C 23.2786,20.7348 22.6119,21.7348 21.5,22.5C 21.6236,23.1067 21.9569,23.44 22.5,23.5C 22.427,25.0269 23.0937,26.0269 24.5,26.5C 26.5485,27.3255 28.2151,26.6589 29.5,24.5C 30.1667,24.5 30.8333,24.5 31.5,24.5C 30.8333,25.5 30.1667,26.5 29.5,27.5C 24.0608,29.9692 20.8942,28.3025 20,22.5C 19.6667,22.8333 19.3333,23.1667 19,23.5C 18.5831,22.244 17.7498,21.5774 16.5,21.5C 16.5,20.8333 16.8333,20.5 17.5,20.5C 17.8333,20.5 18.1667,20.5 18.5,20.5C 19.2216,20.0825 19.7216,19.4158 20,18.5C 20.3333,19.1667 20.6667,19.8333 21,20.5C 21.6708,19.7476 22.5041,19.4142 23.5,19.5 Z"/></g>
<g><path style="opacity:1" fill="#65ccd1" d="M 26.5,23.5 C 26.2178,24.7777 25.5511,25.7777 24.5,26.5C 23.0937,26.0269 22.427,25.0269 22.5,23.5C 23.8333,22.1667 25.1667,22.1667 26.5,23.5 Z"/></g>
<g><path style="opacity:1" fill="#0c343e" d="M 3.5,20.5 C 3.83333,20.5 4.16667,20.5 4.5,20.5C 5.53095,21.2485 6.69762,21.9152 8,22.5C 8.19808,24.3817 8.69808,26.0484 9.5,27.5C 9.94024,30.3798 10.9402,33.0465 12.5,35.5C 11.2223,35.2178 10.2223,34.5511 9.5,33.5C 8.82803,32.7326 7.9947,32.0659 7,31.5C 6.88845,27.3509 5.72178,23.6843 3.5,20.5 Z"/></g>
<g><path style="opacity:1" fill="#02203c" d="M 31.5,24.5 C 32.6737,25.5137 33.3404,26.847 33.5,28.5C 32.7784,28.9175 32.2784,29.5842 32,30.5C 31.6174,29.944 31.1174,29.6107 30.5,29.5C 30.1667,28.8333 29.8333,28.1667 29.5,27.5C 30.1667,26.5 30.8333,25.5 31.5,24.5 Z"/></g>
<g><path style="opacity:1" fill="#02203c" d="M 12.5,24.5 C 13.6923,26.1131 14.6923,27.7798 15.5,29.5C 16.2341,30.7079 16.5674,32.0413 16.5,33.5C 15.7777,32.4489 14.7777,31.7822 13.5,31.5C 12.1429,30.4097 11.1429,29.0764 10.5,27.5C 10.3398,25.8008 10.5065,24.1341 11,22.5C 11.2784,23.4158 11.7784,24.0825 12.5,24.5 Z"/></g>
<g><path style="opacity:1" fill="#46a1b5" d="M 19.5,28.5 C 18.4324,29.4345 17.099,29.7678 15.5,29.5C 15.5,28.5 15.5,27.5 15.5,26.5C 17.3797,26.2291 18.713,26.8958 19.5,28.5 Z"/></g>
<g><path style="opacity:1" fill="#14424b" d="M 38.5,21.5 C 38.2897,25.9284 37.2897,29.9284 35.5,33.5C 35.6716,32.5084 35.3382,31.8417 34.5,31.5C 35.4025,28.6085 35.7359,25.6085 35.5,22.5C 36.391,21.8902 37.391,21.5569 38.5,21.5 Z"/></g>
<g><path style="opacity:1" fill="#161f2b" d="M 43.5,23.5 C 44.9587,23.4326 46.2921,23.7659 47.5,24.5C 47.5,28.5 47.5,32.5 47.5,36.5C 45.9382,36.2671 44.6049,35.6005 43.5,34.5C 43.5,32.8333 43.5,31.1667 43.5,29.5C 42.5,29.5 41.5,29.5 40.5,29.5C 41.1787,27.1861 42.512,26.8528 44.5,28.5C 45.6838,26.533 45.3505,24.8664 43.5,23.5 Z"/></g>
<g><path style="opacity:1" fill="#15313d" d="M 38.5,21.5 C 39.1667,21.5 39.8333,21.5 40.5,21.5C 40.8333,21.5 41.1667,21.5 41.5,21.5C 41.5,21.8333 41.5,22.1667 41.5,22.5C 39.3227,23.3654 38.3227,25.0321 38.5,27.5C 38.6399,29.0296 39.3065,30.0296 40.5,30.5C 40.4621,32.6361 39.7954,33.9694 38.5,34.5C 36.2554,35.8278 35.9221,37.6612 37.5,40C 36.8971,41.8254 36.2304,43.6587 35.5,45.5C 33.3432,46.0505 31.3432,46.7171 29.5,47.5C 28.8333,47.5 28.1667,47.5 27.5,47.5C 27.8333,46.8333 28.1667,46.1667 28.5,45.5C 29.7777,45.2178 30.7777,44.5511 31.5,43.5C 33.3464,43.7778 34.6798,43.1112 35.5,41.5C 34.7255,39.6036 33.7255,37.937 32.5,36.5C 33.9002,35.8999 34.9002,34.8999 35.5,33.5C 37.2897,29.9284 38.2897,25.9284 38.5,21.5 Z"/></g>
<g><path style="opacity:1" fill="#1a1e2e" d="M 5.5,31.5 C 2.9228,31.4551 0.922798,32.4551 -0.5,34.5C -0.5,32.8333 -0.5,31.1667 -0.5,29.5C 2.32887,29.6751 3.99554,28.3418 4.5,25.5C 5.46557,27.396 5.7989,29.396 5.5,31.5 Z"/></g>
<g><path style="opacity:1" fill="#316776" d="M 9.5,27.5 C 9.83333,27.5 10.1667,27.5 10.5,27.5C 11.1429,29.0764 12.1429,30.4097 13.5,31.5C 13.8333,33.8333 15.1667,35.1667 17.5,35.5C 16.0011,36.494 14.3344,36.494 12.5,35.5C 10.9402,33.0465 9.94024,30.3798 9.5,27.5 Z"/></g>
<g><path style="opacity:1" fill="#367293" d="M 19.5,28.5 C 20.3382,28.8417 20.6716,29.5084 20.5,30.5C 20.5,31.1667 20.1667,31.5 19.5,31.5C 18.7777,32.5511 17.7777,33.2178 16.5,33.5C 16.5674,32.0413 16.2341,30.7079 15.5,29.5C 17.099,29.7678 18.4324,29.4345 19.5,28.5 Z"/></g>
<g><path style="opacity:1" fill="#152229" d="M 40.5,29.5 C 41.5,29.5 42.5,29.5 43.5,29.5C 43.5,31.1667 43.5,32.8333 43.5,34.5C 43.1583,35.3382 42.4916,35.6716 41.5,35.5C 40.5041,35.4142 39.6708,35.7476 39,36.5C 38.5357,35.9056 38.369,35.2389 38.5,34.5C 39.7954,33.9694 40.4621,32.6361 40.5,30.5C 40.5,30.1667 40.5,29.8333 40.5,29.5 Z"/></g>
<g><path style="opacity:1" fill="#00183a" d="M 25.5,32.5 C 25.2089,33.6491 24.3756,34.3158 23,34.5C 20.7253,34.7224 19.5587,33.7224 19.5,31.5C 20.1667,31.5 20.5,31.1667 20.5,30.5C 22.0418,29.6993 23.7085,29.366 25.5,29.5C 25.5,30.5 25.5,31.5 25.5,32.5 Z"/></g>
<g><path style="opacity:1" fill="#131b29" d="M 5.5,31.5 C 5.08247,32.2216 4.4158,32.7216 3.5,33C 5.4727,33.4955 7.4727,33.6621 9.5,33.5C 10.2223,34.5511 11.2223,35.2178 12.5,35.5C 12.1667,36.1667 11.8333,36.8333 11.5,37.5C 11.5,37.8333 11.5,38.1667 11.5,38.5C 11.1667,38.5 10.8333,38.5 10.5,38.5C 10.1667,38.5 9.83333,38.5 9.5,38.5C 7.53975,34.5265 5.53975,34.5265 3.5,38.5C 2.91395,38.2907 2.41395,37.9574 2,37.5C 1.54392,38.7441 2.04392,39.5774 3.5,40C 2.43659,41.1882 1.10326,41.6882 -0.5,41.5C -0.5,39.1667 -0.5,36.8333 -0.5,34.5C 0.922798,32.4551 2.9228,31.4551 5.5,31.5 Z"/></g>
<g><path style="opacity:1" fill="#2f6b7c" d="M 33.5,28.5 C 33.2627,29.791 33.596,30.791 34.5,31.5C 35.3382,31.8417 35.6716,32.5084 35.5,33.5C 34.9002,34.8999 33.9002,35.8999 32.5,36.5C 32.1667,36.5 31.8333,36.5 31.5,36.5C 28.5647,36.7167 25.7313,37.3834 23,38.5C 21.6244,38.3158 20.7911,37.6491 20.5,36.5C 24.6814,36.5757 28.3481,35.2423 31.5,32.5C 31.3764,31.8933 31.0431,31.56 30.5,31.5C 29.4937,30.6043 29.4937,29.9377 30.5,29.5C 31.1174,29.6107 31.6174,29.944 32,30.5C 32.2784,29.5842 32.7784,28.9175 33.5,28.5 Z"/></g>
<g><path style="opacity:1" fill="#053148" d="M 13.5,31.5 C 14.7777,31.7822 15.7777,32.4489 16.5,33.5C 17.7777,33.2178 18.7777,32.5511 19.5,31.5C 19.5587,33.7224 20.7253,34.7224 23,34.5C 24.3756,34.3158 25.2089,33.6491 25.5,32.5C 27.1172,31.962 28.7839,31.6287 30.5,31.5C 31.0431,31.56 31.3764,31.8933 31.5,32.5C 28.3481,35.2423 24.6814,36.5757 20.5,36.5C 19.609,35.8902 18.609,35.5569 17.5,35.5C 15.1667,35.1667 13.8333,33.8333 13.5,31.5 Z"/></g>
<g><path style="opacity:1" fill="#161f2c" d="M 38.5,34.5 C 38.369,35.2389 38.5357,35.9056 39,36.5C 39.6708,35.7476 40.5041,35.4142 41.5,35.5C 42.0715,36.9733 42.0715,38.64 41.5,40.5C 40.242,42.6869 39.242,45.0202 38.5,47.5C 35.5,47.5 32.5,47.5 29.5,47.5C 31.3432,46.7171 33.3432,46.0505 35.5,45.5C 36.2304,43.6587 36.8971,41.8254 37.5,40C 35.9221,37.6612 36.2554,35.8278 38.5,34.5 Z"/></g>
<g><path style="opacity:1" fill="#161927" d="M 9.5,38.5 C 7.23138,39.9758 4.89805,41.4758 2.5,43C 6.16329,44.705 9.82995,46.205 13.5,47.5C 8.83333,47.5 4.16667,47.5 -0.5,47.5C -0.5,45.5 -0.5,43.5 -0.5,41.5C 1.10326,41.6882 2.43659,41.1882 3.5,40C 2.04392,39.5774 1.54392,38.7441 2,37.5C 2.41395,37.9574 2.91395,38.2907 3.5,38.5C 5.53975,34.5265 7.53975,34.5265 9.5,38.5 Z"/></g>
<g><path style="opacity:1" fill="#69c4ca" d="M 31.5,36.5 C 31.8333,36.5 32.1667,36.5 32.5,36.5C 33.7255,37.937 34.7255,39.6036 35.5,41.5C 34.6798,43.1112 33.3464,43.7778 31.5,43.5C 30.7659,42.2921 30.4326,40.9587 30.5,39.5C 31.404,38.791 31.7373,37.791 31.5,36.5 Z"/></g>
<g><path style="opacity:1" fill="#141e27" d="M 43.5,34.5 C 44.6049,35.6005 45.9382,36.2671 47.5,36.5C 47.5,38.1667 47.5,39.8333 47.5,41.5C 46.4693,40.645 45.3026,39.9783 44,39.5C 43.2352,39.5699 42.7352,39.9033 42.5,40.5C 42.1667,40.5 41.8333,40.5 41.5,40.5C 42.0715,38.64 42.0715,36.9733 41.5,35.5C 42.4916,35.6716 43.1583,35.3382 43.5,34.5 Z"/></g>
<g><path style="opacity:1" fill="#111724" d="M 47.5,41.5 C 47.5,43.5 47.5,45.5 47.5,47.5C 46.5,47.5 45.5,47.5 44.5,47.5C 43.8333,45.1667 43.1667,42.8333 42.5,40.5C 42.7352,39.9033 43.2352,39.5699 44,39.5C 45.3026,39.9783 46.4693,40.645 47.5,41.5 Z"/></g>
<g><path style="opacity:1" fill="#0d1d27" d="M 9.5,38.5 C 9.83333,38.5 10.1667,38.5 10.5,38.5C 10.1231,40.258 9.45645,41.9246 8.5,43.5C 10.7765,44.4207 13.1099,45.0874 15.5,45.5C 15.8333,45.5 16.1667,45.5 16.5,45.5C 16.8333,46.1667 17.1667,46.8333 17.5,47.5C 16.1667,47.5 14.8333,47.5 13.5,47.5C 9.82995,46.205 6.16329,44.705 2.5,43C 4.89805,41.4758 7.23138,39.9758 9.5,38.5 Z"/></g>
<g><path style="opacity:1" fill="#175162" d="M 12.5,35.5 C 14.3344,36.494 16.0011,36.494 17.5,35.5C 18.609,35.5569 19.609,35.8902 20.5,36.5C 20.7911,37.6491 21.6244,38.3158 23,38.5C 25.7313,37.3834 28.5647,36.7167 31.5,36.5C 31.7373,37.791 31.404,38.791 30.5,39.5C 29.8333,39.5 29.1667,39.5 28.5,39.5C 27.5326,40.8062 26.1993,41.4729 24.5,41.5C 24.5,42.8333 24.5,44.1667 24.5,45.5C 24.1667,45.5 23.8333,45.5 23.5,45.5C 23.8333,42.5 22.5,41.1667 19.5,41.5C 18.8106,40.2264 17.9772,40.2264 17,41.5C 16.7165,39.1144 15.7165,38.4477 14,39.5C 13.5831,38.244 12.7498,37.5774 11.5,37.5C 11.8333,36.8333 12.1667,36.1667 12.5,35.5 Z"/></g>
<g><path style="opacity:1" fill="#0e1924" d="M 41.5,40.5 C 41.8333,40.5 42.1667,40.5 42.5,40.5C 43.1667,42.8333 43.8333,45.1667 44.5,47.5C 42.5,47.5 40.5,47.5 38.5,47.5C 39.242,45.0202 40.242,42.6869 41.5,40.5 Z"/></g>
<g><path style="opacity:1" fill="#62c8cb" d="M 11.5,37.5 C 12.7498,37.5774 13.5831,38.244 14,39.5C 15.7165,38.4477 16.7165,39.1144 17,41.5C 17.9772,40.2264 18.8106,40.2264 19.5,41.5C 18.5,41.8333 17.8333,42.5 17.5,43.5C 17.1667,44.1667 16.8333,44.8333 16.5,45.5C 16.1667,45.5 15.8333,45.5 15.5,45.5C 15.0175,43.1299 13.8508,42.4632 12,43.5C 11.5065,41.8659 11.3398,40.1992 11.5,38.5C 11.5,38.1667 11.5,37.8333 11.5,37.5 Z"/></g>
<g><path style="opacity:1" fill="#67c5c9" d="M 28.5,39.5 C 29.7199,41.2837 29.7199,42.9504 28.5,44.5C 28.6309,43.6236 28.2975,42.9569 27.5,42.5C 26.8333,43.8333 26.1667,45.1667 25.5,46.5C 24.8933,46.3764 24.56,46.0431 24.5,45.5C 24.5,44.1667 24.5,42.8333 24.5,41.5C 26.1993,41.4729 27.5326,40.8062 28.5,39.5 Z"/></g>
<g><path style="opacity:1" fill="#2b8081" d="M 28.5,39.5 C 29.1667,39.5 29.8333,39.5 30.5,39.5C 30.4326,40.9587 30.7659,42.2921 31.5,43.5C 30.7777,44.5511 29.7777,45.2178 28.5,45.5C 28.5,45.1667 28.5,44.8333 28.5,44.5C 29.7199,42.9504 29.7199,41.2837 28.5,39.5 Z"/></g>
<g><path style="opacity:1" fill="#104248" d="M 10.5,38.5 C 10.8333,38.5 11.1667,38.5 11.5,38.5C 11.3398,40.1992 11.5065,41.8659 12,43.5C 13.8508,42.4632 15.0175,43.1299 15.5,45.5C 13.1099,45.0874 10.7765,44.4207 8.5,43.5C 9.45645,41.9246 10.1231,40.258 10.5,38.5 Z"/></g>
<g><path style="opacity:1" fill="#56aeb5" d="M 19.5,41.5 C 22.5,41.1667 23.8333,42.5 23.5,45.5C 20.8737,47.0059 18.8737,46.3392 17.5,43.5C 17.8333,42.5 18.5,41.8333 19.5,41.5 Z"/></g>
<g><path style="opacity:1" fill="#053943" d="M 28.5,44.5 C 28.5,44.8333 28.5,45.1667 28.5,45.5C 28.1667,46.1667 27.8333,46.8333 27.5,47.5C 24.1667,47.5 20.8333,47.5 17.5,47.5C 17.1667,46.8333 16.8333,46.1667 16.5,45.5C 16.8333,44.8333 17.1667,44.1667 17.5,43.5C 18.8737,46.3392 20.8737,47.0059 23.5,45.5C 23.8333,45.5 24.1667,45.5 24.5,45.5C 24.56,46.0431 24.8933,46.3764 25.5,46.5C 26.1667,45.1667 26.8333,43.8333 27.5,42.5C 28.2975,42.9569 28.6309,43.6236 28.5,44.5 Z"/></g>
</svg>
